<svg xmlns="http://www.w3.org/2000/svg" width="605" height="114" fill="none"><mask id="a" width="603" height="112" x="1" y="1" maskUnits="userSpaceOnUse" style="mask-type:luminance"><path fill="#fff" d="M600 1H5a4 4 0 0 0-4 4v104a4 4 0 0 0 4 4h595a4 4 0 0 0 4-4V5a4 4 0 0 0-4-4Z"/></mask><g mask="url(#a)"><path fill="#24232D" d="M600 1H5a4 4 0 0 0-4 4v104a4 4 0 0 0 4 4h595a4 4 0 0 0 4-4V5a4 4 0 0 0-4-4Z"/><path fill="#04A29F" stroke="#04A29F" stroke-width="1.271" d="m537.597 27.88 6.228-2.242c.287-.104.599-.117.893-.038l52.125 13.967a.294.294 0 0 1 .207.36L586.326 79.95a1.497 1.497 0 0 1-.946 1.022l-6.408 2.261c-.284.1-.592.113-.884.035l-50.802-13.613a1.495 1.495 0 0 1-1.057-1.83L536.66 28.9c.126-.473.477-.854.937-1.02Z"/><mask id="b" width="33" height="33" x="554" y="45" maskUnits="userSpaceOnUse" style="mask-type:luminance"><path fill="#fff" d="m586.112 52.052-25.197-6.751-6.752 25.197 25.198 6.752 6.751-25.198Z"/></mask><g mask="url(#b)"><path fill="#04A29F" d="m579.594 63.809-6.018-1.613-.461 1.72 4.127 1.105c-1.293 2.418-3.76 4.06-6.484 4.253l-7.238-12.537c1.838-2.733 5.337-4.099 8.69-3.2 2.58.69 4.555 2.602 5.487 4.972l1.589-.773c-1.097-2.782-3.434-5.066-6.615-5.919-4.471-1.198-9.106.97-11.18 4.93l8.307 14.389c4.404.074 8.598-2.857 9.796-7.327Zm-18.937-4.982c-.645 2.407-.322 4.982 1 7.27 1.322 2.29 3.476 3.88 5.797 4.503l-6.797-11.773Z"/><path fill="#24232D" d="M573.363 49.238c-6.62-1.774-13.488 2.191-15.262 8.811-1.774 6.62 2.191 13.488 8.811 15.262 6.62 1.774 13.488-2.191 15.262-8.811 1.774-6.62-2.191-13.488-8.811-15.262Zm-11.728 16.946c-1.322-2.29-1.623-4.95-1.001-7.272l6.883 11.797c-2.384-.731-4.561-2.236-5.882-4.525Zm8.101 4.843-8.245-14.281c2.075-3.96 6.71-6.127 11.181-4.929 3.181.852 5.517 3.137 6.615 5.92l-1.589.771c-.932-2.369-2.908-4.28-5.487-4.971-3.353-.899-6.766.49-8.69 3.2l7.238 12.536c2.723-.191 5.191-1.834 6.484-4.252l-4.127-1.106.461-1.72 6.018 1.614c-1.198 4.47-5.393 7.4-9.859 7.218Z"/></g><path fill="#24232D" stroke="#04A29F" stroke-width="1.271" d="m471.691 10.25 6.226-2.23c.287-.103.597-.115.891-.037l52.144 13.972c.157.042.25.203.208.36l-10.691 39.9c-.128.477-.483.86-.948 1.023l-6.406 2.25c-.284.1-.591.111-.882.033l-50.822-13.617a1.494 1.494 0 0 1-1.056-1.83l10.397-38.803c.127-.474.478-.855.939-1.02Z"/><mask id="c" width="40" height="30" x="480" y="28" maskUnits="userSpaceOnUse" style="mask-type:luminance"><path fill="#fff" d="m519.863 37.325-33.509-8.98-5.401 20.159 33.509 8.978 5.401-20.157Z"/></mask><g mask="url(#c)"><path fill="#04A29F" d="M503.109 32.835c-4.468-1.197-7.859.289-10.173 4.457 2.274-1.785 4.453-2.099 6.538-.942 1.189.66 1.852 1.83 2.586 3.123 1.196 2.108 2.58 4.547 6.733 5.66 4.468 1.197 7.859-.289 10.173-4.458-2.274 1.785-4.453 2.1-6.538.942-1.189-.66-1.852-1.829-2.586-3.122-1.196-2.108-2.58-4.547-6.733-5.66Zm-11.071 7.808c-4.468-1.197-7.859.289-10.173 4.457 2.274-1.785 4.453-2.099 6.538-.942 1.189.66 1.852 1.83 2.586 3.123 1.196 2.108 2.58 4.547 6.733 5.66 4.468 1.197 7.859-.289 10.173-4.458-2.274 1.786-4.453 2.1-6.538.942-1.189-.66-1.852-1.829-2.586-3.122-1.196-2.108-2.58-4.547-6.733-5.66Z"/></g><path fill="#24232D" stroke="#04A29F" stroke-width="1.271" d="m604.166 45.748 6.229-2.243c.286-.103.598-.117.893-.038l52.124 13.967c.157.042.25.203.208.36l-10.725 40.024a1.492 1.492 0 0 1-.946 1.022l-6.407 2.261a1.49 1.49 0 0 1-.884.035l-50.802-13.612a1.494 1.494 0 0 1-1.057-1.83l10.43-38.927c.127-.473.477-.854.937-1.02ZM523.603 80.11l6.228-2.242c.287-.103.599-.116.893-.037l52.124 13.966c.157.042.25.203.208.36l-10.724 40.024a1.496 1.496 0 0 1-.946 1.022l-6.408 2.262c-.284.1-.592.112-.884.034l-50.802-13.612a1.496 1.496 0 0 1-1.057-1.831l10.431-38.926c.126-.473.476-.853.937-1.02Z"/><mask id="d" width="33" height="33" x="539" y="97" maskUnits="userSpaceOnUse" style="mask-type:luminance"><path fill="#fff" d="m571.926 103.903-25.197-6.752-6.752 25.197 25.198 6.752 6.751-25.197Z"/></mask><g mask="url(#d)"><path fill="#24232D" d="m558.024 103.027-8.918 2.39a1.22 1.22 0 0 0-.864.864l-2.39 8.917c-.113.422.008.873.317 1.182l6.528 6.527c.309.309.759.43 1.181.317l8.917-2.389c.422-.114.752-.443.865-.865l2.389-8.917a1.225 1.225 0 0 0-.316-1.181l-6.528-6.528a1.223 1.223 0 0 0-1.181-.317Z"/><path fill="#04A29F" d="m559.814 101.07 8.192 8.192c.309.309.429.759.316 1.181l-2.998 11.191a1.222 1.222 0 0 1-.865.864l-11.19 2.999a1.223 1.223 0 0 1-1.181-.317l-8.192-8.192a1.222 1.222 0 0 1-.317-1.181l2.999-11.19c.113-.422.443-.752.865-.865l11.19-2.998c.422-.113.872.008 1.181.316Zm-1.79 1.957-8.917 2.389a1.223 1.223 0 0 0-.865.865l-2.389 8.917a1.22 1.22 0 0 0 .316 1.181l6.528 6.528c.309.309.759.43 1.181.317l8.917-2.39c.422-.113.752-.442.865-.864l2.389-8.917a1.224 1.224 0 0 0-.316-1.182l-6.528-6.527a1.223 1.223 0 0 0-1.181-.317Z"/></g><path fill="#04A29F" stroke="#04A29F" stroke-width="1.271" d="m457.721 62.441 6.226-2.23c.287-.103.598-.116.891-.037l52.145 13.972a.294.294 0 0 1 .207.36l-10.691 39.899c-.128.477-.482.86-.948 1.024l-6.405 2.249a1.5 1.5 0 0 1-.882.034l-50.822-13.618a1.494 1.494 0 0 1-1.057-1.83l10.397-38.803c.127-.473.478-.854.939-1.02Z"/><path fill="#24232D" stroke="#24232D" stroke-width=".486" d="m475.696 85.724 7.783 2.086-.166.622-7.07-1.894-1.255 4.683 6.648 1.782-.167.622-6.648-1.781-1.378 5.142 7.151 1.916-.167.622-7.864-2.107 3.133-11.693Zm8.481 2.272.827.222 2.286 6.124 5.124-4.138 6.845-5.167-11.643 9.972 2.703 7.165-.86-.23-2.458-6.521-5.406 4.414-.843-.226 5.956-4.846-2.531-6.769Zm9.416 3.191.167-.623 8.87 2.377-.167.622-4.086-1.095-2.967 11.071-.713-.191 2.966-11.071-4.07-1.09ZM465.963 83.126l.892.239 7.337 21.807-3.255-8.181-4.465-12.78-2.929 10.799-.713-.191 3.133-11.693ZM499.662 103.802a.261.261 0 0 0 .325-.193.26.26 0 0 0-.185-.328.262.262 0 0 0-.325.192c-.039.147.04.29.185.329Zm.885-.498c-.116.434.119.8.572.921.482.13.852-.084.987-.591l.479-1.785-.389-.104-.478 1.783c-.075.282-.256.394-.504.328-.222-.06-.336-.24-.285-.449l-.382-.103Zm2.052.526c-.093.458.203.847.758.995.594.159 1.046-.044 1.175-.526.102-.379-.054-.646-.535-.904l-.258-.142c-.305-.164-.41-.303-.361-.483.061-.227.305-.321.612-.239.292.079.454.278.428.52l.379.101c.091-.431-.2-.829-.709-.965-.546-.147-.991.055-1.111.504-.1.37.048.646.472.874l.302.165c.31.167.425.322.374.514-.06.224-.333.325-.645.241-.335-.089-.527-.304-.496-.552l-.385-.103Z"/><path fill="#24232D" stroke="#04A29F" stroke-width="1.271" d="m590.163 97.92 6.229-2.242c.286-.104.598-.117.893-.038l52.124 13.967c.157.042.25.203.208.36l-10.725 40.024a1.492 1.492 0 0 1-.946 1.022l-6.407 2.261a1.49 1.49 0 0 1-.884.035l-50.802-13.613a1.493 1.493 0 0 1-1.057-1.83l10.43-38.926c.127-.473.477-.854.937-1.02Z"/></g><path stroke="#04A29F" d="M600 .5H5A4.5 4.5 0 0 0 .5 5v104a4.5 4.5 0 0 0 4.5 4.5h595a4.5 4.5 0 0 0 4.5-4.5V5A4.5 4.5 0 0 0 600 .5Z"/><mask id="e" width="200" height="50" x="10" y="12" maskUnits="userSpaceOnUse" style="mask-type:luminance"><path fill="#fff" d="M210 12H10v49.784h200V12Z"/></mask><g mask="url(#e)"><mask id="f" width="200" height="50" x="10" y="12" maskUnits="userSpaceOnUse" style="mask-type:luminance"><path fill="#fff" d="M210 12H10v49.784h200V12Z"/></mask><g mask="url(#f)"><path fill="#ABB5BF" d="m183.33 35.742.266-.265c0-.796-.266-3.184-3.185-3.184s-3.184 2.388-3.184 3.184l.265.265h5.838Zm-2.653 7.961c-4.246 0-6.369-2.919-6.369-6.9 0-3.714 1.858-6.898 6.103-6.898 4.246 0 6.104 3.184 6.104 6.899v.796l-.266.265h-8.757l-.265.266c0 .53.265 3.184 3.45 3.184 1.061 0 2.122-.265 2.653-1.592l.266-.266h2.122l.266.266c-.266 2.123-2.123 3.98-5.307 3.98ZM172.969 43.173l-.265.265h-2.123c-1.858 0-3.715-1.062-3.715-3.45v-7.164l-.265-.266h-1.858l-.265-.265v-1.858l.265-.265h1.858l.265-.265v-2.389l.265-.265h2.123l.266.265v2.389l.265.265h2.919l.265.265v1.858l-.265.265h-2.919l-.265.266v7.164c0 .796.53 1.062 1.061 1.062h2.123l.265.265v1.858ZM162.88 43.172l-.266.266h-1.858l-.265-.266-.265-1.061h-.265c-.876 1.061-2.256 1.592-3.716 1.592-2.945 0-4.511-1.592-4.511-4.246 0-2.919 2.362-4.245 5.838-4.245.796 0 1.725.132 2.389.265l.265-.265v-.531c0-1.884-.77-2.388-2.654-2.388s-2.653.53-2.653 1.592l-.266.265h-2.122l-.266-.265c0-1.858 1.327-3.98 5.307-3.98 3.981 0 5.308 1.883 5.308 5.837v7.43Zm-2.654-4.51v-.797l-.265-.265a8.001 8.001 0 0 0-2.124-.266c-2.414 0-3.449.77-3.449 2.123 0 1.354.796 1.858 2.388 1.858 2.123 0 3.45-1.061 3.45-2.654ZM146.975 35.742l.265-.265c0-.796-.265-3.184-3.184-3.184s-3.184 2.388-3.184 3.184l.265.265h5.838Zm-2.654 7.961c-4.246 0-6.368-2.919-6.368-6.9 0-3.714 1.857-6.898 6.103-6.898 4.246 0 6.103 3.184 6.103 6.899v.796l-.265.265h-8.757l-.265.266c0 .53.265 3.184 3.449 3.184 1.062 0 2.123-.265 2.654-1.592l.265-.266h2.123l.265.266c-.265 2.123-2.123 3.98-5.307 3.98ZM137.421 32.293l-.265.266h-1.327c-2.123 0-3.45.796-3.45 3.98v6.634l-.265.265h-2.123l-.265-.265V30.436l.265-.265h1.857l.266.265.265 1.061h.266c.795-.796 1.592-1.326 3.449-1.326h1.062l.265.265v1.857ZM117.799 36.804c0 2.919 1.327 4.51 3.715 4.51 2.123 0 2.919-1.06 3.184-2.122l.266-.265h2.123l.265.265c-.265 2.388-2.123 4.511-5.838 4.511-3.98 0-6.368-2.653-6.368-6.9 0-4.245 2.388-6.898 6.368-6.898 3.715 0 5.573 2.122 5.838 4.51l-.265.266h-2.123l-.266-.265c-.265-1.062-1.061-2.123-3.184-2.123-2.388 0-3.715 1.592-3.715 4.51Z"/><path fill="#32E6E2" d="M37.906 61.524V48.947l.26-.26h3.145l.26.26v12.577l-.26.26h-3.144l-.26-.26ZM37.906 24.837V12.261l.26-.261h3.145l.26.26v12.577l-.26.26h-3.144l-.26-.26ZM27.085 52.682h-.432l-2.162-2.163v-.431l4.052-4.057 2.289.004.305.302v2.289l-4.052 4.056ZM24.49 23.81v-.435l2.163-2.159h.432l4.052 4.053v2.285l-.305.31h-2.289l-4.052-4.053ZM10.26 35.055H28.08l.26.261v3.148l-.26.26H10.26l-.261-.26v-3.148l.26-.26Z"/><path fill="#fff" d="M45.636 43.445h-3.144l-.26-.26v-7.36c0-1.311-.514-2.325-2.094-2.358-.815-.02-1.743 0-2.737.04l-.15.151v9.522l-.261.261h-3.144l-.261-.26V30.603l.26-.26h7.075a4.976 4.976 0 0 1 4.977 4.976v7.86l-.261.261v.004ZM60.864 37.939l-.26.26h-8.13l-.26.261c0 .526.525 2.098 2.622 2.098.786 0 1.572-.261 1.837-.786l.26-.261h3.145l.26.26c-.26 1.573-1.572 3.935-5.506 3.935-4.456 0-6.553-3.144-6.553-6.818 0-3.673 2.097-6.817 6.292-6.817s6.293 3.144 6.293 6.817v1.05Zm-3.934-2.623c0-.26-.261-2.097-2.358-2.097-2.098 0-2.359 1.836-2.359 2.097l.261.26h4.195l.26-.26ZM68.203 39.511c0 .525.26.786.785.786h2.359l.26.26v2.623l-.26.261h-2.359c-2.358 0-4.455-1.05-4.455-3.934V33.74l-.26-.26h-1.837l-.261-.261v-2.623l.26-.26h1.837l.261-.261v-2.358l.26-.261h3.145l.26.26v2.359l.261.26h2.883l.261.26v2.624l-.26.26h-2.884l-.26.26v5.768l.004.004ZM77.904 43.445h-3.145l-.26-.26v-17.83l.26-.261h3.145l.26.26V43.18l-.26.261v.004ZM84.982 28.238h-3.144l-.26-.26v-2.624l.26-.26h3.144l.26.26v2.623l-.26.26Zm0 15.207h-3.144l-.26-.26V30.6l.26-.26h3.144l.26.26v12.584l-.26.261ZM97.306 25.354v2.623l-.26.26h-2.36c-.524 0-.785.261-.785.787v1.05l.26.261h2.623l.261.26v2.624l-.26.26h-2.623l-.261.261v9.436l-.26.261h-3.145l-.26-.26V33.74l-.261-.26h-1.837l-.26-.261v-2.623l.26-.26h1.837l.26-.261v-1.051c0-2.884 2.098-3.934 4.456-3.934h2.358l.26.26-.003.004ZM107.003 43.706c-1.051 2.623-2.098 4.195-5.767 4.195h-1.311l-.26-.261v-2.623l.26-.26h1.311c1.311 0 1.572-.261 1.837-1.047v-.26l-4.195-10.227V30.6l.26-.26h2.359l.26.26 3.145 8.915h.26l3.144-8.915.261-.26h2.358l.26.26v2.623l-4.194 10.487.012-.004Z"/><path fill="#32E6E2" d="m209.742 35.074.26.26v3.145l-.26.26h-18.079l-.261-.26 1.308-3.145.261-.26h16.771Z"/></g><mask id="g" width="57" height="7" x="130" y="48" maskUnits="userSpaceOnUse" style="mask-type:luminance"><path fill="#fff" d="M186.23 48.185h-56.222v6.497h56.222v-6.497Z"/></mask><g fill="#7E8792" mask="url(#g)"><path d="m186.23 53.413-.075.074h-.598c-.522 0-1.045-.299-1.045-.97V50.5l-.075-.075h-.522l-.075-.074v-.523l.075-.075h.522l.075-.074v-.672l.075-.075h.597l.075.075v.672l.074.074h.822l.075.075v.523l-.075.074h-.822l-.074.075v2.016c0 .224.149.3.298.3h.598l.075.074v.523ZM183.245 49.081l-.074.075h-.598l-.074-.075v-.597l.074-.075h.598l.074.075v.597Zm0 4.331-.074.075h-.598l-.074-.075v-3.584l.074-.075h.598l.074.075v3.584ZM181.827 51.62c0 1.12-.665 1.942-1.643 1.942-.374 0-.732-.15-.971-.448h-.075l-.074.299-.075.074h-.523l-.074-.075v-5.078l.074-.074h.598l.074.075v1.792h.075c.224-.284.575-.448.971-.448.978 0 1.643.746 1.643 1.941Zm-.747 0c0-.829-.373-1.27-.971-1.27-.597 0-.971.374-.971 1.27s.374 1.27.971 1.27c.598 0 .971-.441.971-1.27ZM177.721 53.413l-.075.074h-.298l-.15-.075-1.12-1.418h-.075l-.522.522-.075.15v.747l-.075.074h-.597l-.075-.075v-5.078l.075-.074h.597l.075.075v3.21h.075l1.717-1.717.15-.075h.223l.075.075v.523l-1.045 1.045v.075l1.12 1.419v.523ZM171.301 51.62c0 .822.374 1.27 1.046 1.27.597 0 .821-.299.896-.598l.075-.074h.597l.075.074c-.075.672-.598 1.27-1.643 1.27-1.12 0-1.792-.747-1.792-1.942 0-1.195.672-1.941 1.792-1.941 1.045 0 1.568.597 1.643 1.27l-.075.074h-.597l-.075-.075c-.075-.299-.299-.597-.896-.597-.672 0-1.046.448-1.046 1.27ZM169.957 53.413l-.074.074h-.523l-.075-.075-.075-.298h-.074c-.247.299-.635.448-1.046.448-.829 0-1.269-.448-1.269-1.195 0-.821.664-1.195 1.643-1.195.224 0 .485.038.672.075l.074-.075v-.15c0-.53-.216-.671-.746-.671-.531 0-.747.15-.747.448l-.075.075h-.597l-.075-.075c0-.523.374-1.12 1.494-1.12s1.493.53 1.493 1.642v2.092Zm-.747-1.27v-.224l-.074-.075a2.265 2.265 0 0 0-.598-.074c-.679 0-.97.216-.97.597s.224.523.672.523c.597 0 .97-.299.97-.747ZM166.372 53.413l-.075.074h-.597c-.523 0-1.045-.299-1.045-.97V50.5l-.075-.075h-.523l-.075-.074v-.523l.075-.075h.523l.075-.074v-.672l.074-.075h.598l.074.075v.672l.075.074h.821l.075.075v.523l-.075.074h-.821l-.075.075v2.016c0 .224.15.3.299.3h.597l.075.074v.523ZM163.609 52.068c0 .822-.598 1.494-2.017 1.494-1.269 0-2.091-.598-2.091-1.718l.075-.074h.598l.074.074c0 .747.523 1.046 1.419 1.046.672 0 1.195-.224 1.195-.822 0-.672-.448-.821-1.494-.97-1.045-.15-1.717-.598-1.717-1.494 0-.672.523-1.419 1.867-1.419 1.12 0 1.941.448 1.941 1.568l-.074.075h-.598l-.074-.075c0-.597-.299-.896-1.27-.896-.672 0-1.045.299-1.045.747 0 .597.373.747 1.418.896 1.046.15 1.793.523 1.793 1.568ZM157.112 50.35l-1.194 2.988c-.448 1.12-.747 1.344-1.643 1.344h-.15l-.074-.075v-.522l.074-.075h.15c.373 0 .597-.075.746-.448v-.075l-1.269-3.136v-.523l.075-.075h.448l.074.075 1.046 2.763h.075l1.045-2.763.075-.075h.448l.074.075v.523ZM153.082 53.413l-.074.074h-.598l-.075-.075v-5.078l.075-.074h.598l.074.075v5.078ZM151.738 50.35l-.075.075h-.373c-.598 0-.971.225-.971 1.12v1.867l-.075.075h-.597l-.075-.075v-3.584l.075-.075h.523l.074.075.075.299h.075c.224-.224.448-.374.971-.374h.298l.075.075v.523ZM148.007 51.322l.075-.075c0-.224-.075-.896-.896-.896-.822 0-.896.672-.896.896l.074.075h1.643Zm-.746 2.24c-1.195 0-1.793-.822-1.793-1.942 0-1.045.523-1.941 1.718-1.941 1.195 0 1.717.896 1.717 1.941v.224l-.074.075h-2.465l-.074.075c0 .149.074.896.971.896.298 0 .597-.075.746-.448l.075-.075h.597l.075.075c-.075.597-.597 1.12-1.493 1.12ZM144.873 53.413l-.074.074h-.598l-.074-.075v-2.24c0-.448-.075-.821-.672-.821-.523 0-.822.373-.822.97v2.092l-.075.074h-.597l-.075-.075v-2.24c0-.448-.074-.821-.672-.821-.373 0-.821.224-.821.97v2.092l-.075.074h-.597l-.075-.075v-3.584l.075-.075h.522l.075.075.075.299h.074c.15-.224.449-.448.971-.448.598 0 .822.298.971.522h.075c.224-.298.597-.522 1.12-.522 1.045 0 1.269.672 1.269 1.493v2.24ZM139.048 50.35l-.074.075h-.374c-.597 0-.97.225-.97 1.12v1.867l-.075.075h-.598l-.074-.075v-3.584l.074-.075h.523l.075.075.075.299h.074c.224-.224.448-.374.971-.374h.299l.074.075v.523ZM132.626 51.62c0-1.195.673-1.941 1.793-1.941 1.12 0 1.792.746 1.792 1.941s-.672 1.942-1.792 1.942-1.793-.747-1.793-1.942Zm.747 0c0 .822.374 1.27 1.046 1.27s1.045-.448 1.045-1.27c0-.821-.373-1.27-1.045-1.27-.672 0-1.046.449-1.046 1.27ZM132.323 50.35l-.075.075h-.747l-.074.075v2.913l-.075.074h-.597l-.075-.075V50.5l-.075-.075h-.523l-.074-.074v-.523l.074-.075h.523l.075-.074v-.3c0-.671.523-.97 1.045-.97h.598l.074.075v.523l-.074.074h-.598c-.149 0-.298.075-.298.299v.299l.074.074h.747l.075.075v.523Z"/></g></g><path fill="#fff" d="M12.672 71.416h3.232l8.512 21.824h-1.632l8.512-21.824h3.168L25.28 95h-3.424l-9.184-23.584ZM39.413 77.976c.576 0 1.056-.128 1.44-.384V95h-2.88V77.592c.405.256.885.384 1.44.384Zm0-6.24c.576 0 1.045.192 1.408.576.363.384.544.853.544 1.408 0 .555-.181 1.024-.544 1.408-.363.384-.832.576-1.408.576s-1.056-.192-1.44-.576c-.363-.384-.544-.853-.544-1.408 0-.555.181-1.024.544-1.408.384-.384.864-.576 1.44-.576ZM51.921 77.464c1.344 0 2.517.245 3.52.736 1.003.47 1.76 1.12 2.272 1.952.533.832.8 1.76.8 2.784h-2.976c-.021-.832-.362-1.515-1.024-2.048-.661-.555-1.536-.832-2.624-.832s-1.93.213-2.528.64c-.576.427-.864.97-.864 1.632 0 .597.181 1.077.544 1.44.384.363 1.12.661 2.208.896l2.752.608c1.195.256 2.144.619 2.848 1.088.726.47 1.248 1.035 1.568 1.696.32.64.48 1.387.48 2.24 0 1.557-.587 2.795-1.76 3.712-1.173.917-2.816 1.376-4.928 1.376-2.325 0-4.107-.523-5.344-1.568-1.237-1.067-1.856-2.443-1.856-4.128h2.944c.021.939.395 1.696 1.12 2.272.747.555 1.835.832 3.264.832 1.173 0 2.059-.224 2.656-.672.619-.47.928-1.067.928-1.792 0-.683-.224-1.216-.672-1.6-.427-.384-1.184-.693-2.272-.928l-2.912-.608c-1.621-.363-2.794-.95-3.52-1.76-.704-.832-1.056-1.867-1.056-3.104 0-.917.245-1.739.736-2.464.512-.747 1.248-1.333 2.208-1.76.96-.427 2.123-.64 3.488-.64ZM62.496 77.816h2.848v9.088c0 1.813.384 3.221 1.152 4.224.768.981 1.781 1.472 3.04 1.472.853 0 1.61-.235 2.272-.704.661-.47 1.184-1.13 1.568-1.984.384-.853.576-1.835.576-2.944l.48 4.064a5.68 5.68 0 0 1-1.952 3.136c-.981.81-2.219 1.216-3.712 1.216-1.237 0-2.326-.31-3.264-.928-.939-.619-1.675-1.525-2.208-2.72-.533-1.195-.8-2.635-.8-4.32v-9.6Zm11.424 0h2.88V95h-2.88V77.816ZM88.483 77.496c2.325 0 4.117.64 5.376 1.92 1.259 1.259 1.888 3.03 1.888 5.312V95h-2.88V84.28c0-1.301-.384-2.304-1.152-3.008-.746-.725-1.813-1.088-3.2-1.088-1.28 0-2.272.267-2.976.8-.704.512-1.13 1.237-1.28 2.176h-2.976a5.857 5.857 0 0 1 .992-2.848c.576-.853 1.387-1.536 2.432-2.048 1.067-.512 2.326-.768 3.776-.768Zm5.312 6.528.576 2.368-6.784 1.056c-1.493.235-2.538.597-3.136 1.088-.597.49-.896 1.11-.896 1.856 0 .661.277 1.195.832 1.6.576.405 1.365.608 2.368.608 1.11 0 2.133-.224 3.072-.672.939-.47 1.675-1.12 2.208-1.952.555-.853.832-1.813.832-2.88l1.12 1.184c0 1.301-.31 2.496-.928 3.584-.618 1.067-1.514 1.91-2.688 2.528-1.173.619-2.528.928-4.064.928-1.75 0-3.147-.427-4.192-1.28-1.024-.875-1.536-2.027-1.536-3.456 0-1.43.502-2.613 1.504-3.552 1.024-.96 2.635-1.61 4.832-1.952l6.88-1.056ZM100.287 70.392h2.88V95h-2.88V70.392ZM120.364 71.416h3.072V95h-3.072V71.416Zm2.208 0h13.664v2.88h-13.664v-2.88Zm0 8.928h9.984v2.88h-9.984v-2.88Zm0 11.776h13.76V95h-13.76v-2.88ZM151.993 70.392h2.88V95h-2.88V70.392Zm-6.144 7.072c1.728 0 3.168.416 4.32 1.248 1.173.832 2.027 1.984 2.56 3.456l-.736 4.192c0-1.963-.491-3.51-1.472-4.64-.981-1.152-2.315-1.728-4-1.728-1.088 0-2.059.267-2.912.8-.832.533-1.483 1.28-1.952 2.24-.469.96-.704 2.07-.704 3.328 0 1.259.235 2.368.704 3.328s1.12 1.707 1.952 2.24c.853.533 1.824.8 2.912.8 1.685 0 3.019-.565 4-1.696.981-1.152 1.472-2.71 1.472-4.672l.736 4.288c-.533 1.493-1.387 2.656-2.56 3.488-1.152.832-2.592 1.248-4.32 1.248-1.557 0-2.944-.363-4.16-1.088-1.195-.747-2.123-1.792-2.784-3.136-.661-1.365-.992-2.944-.992-4.736 0-1.792.331-3.37.992-4.736.661-1.365 1.589-2.41 2.784-3.136 1.216-.725 2.603-1.088 4.16-1.088ZM161.382 77.976c.576 0 1.056-.128 1.44-.384V95h-2.88V77.592c.405.256.885.384 1.44.384Zm0-6.24c.576 0 1.045.192 1.408.576.362.384.544.853.544 1.408 0 .555-.182 1.024-.544 1.408-.363.384-.832.576-1.408.576s-1.056-.192-1.44-.576c-.363-.384-.544-.853-.544-1.408 0-.555.181-1.024.544-1.408.384-.384.864-.576 1.44-.576ZM166.621 77.816h10.272v2.464h-10.272v-2.464Zm3.424-5.504h2.88V95h-2.88V72.312ZM182.038 77.976c.576 0 1.056-.128 1.44-.384V95h-2.88V77.592c.405.256.885.384 1.44.384Zm0-6.24c.576 0 1.045.192 1.408.576.363.384.544.853.544 1.408 0 .555-.181 1.024-.544 1.408-.363.384-.832.576-1.408.576s-1.056-.192-1.44-.576c-.363-.384-.544-.853-.544-1.408 0-.555.181-1.024.544-1.408.384-.384.864-.576 1.44-.576ZM188.131 77.816h2.88V95h-2.88V77.816Zm8.32-.352c1.301 0 2.442.31 3.424.928.981.619 1.749 1.525 2.304 2.72.576 1.195.864 2.624.864 4.288V95h-2.88v-9.088c0-1.813-.406-3.21-1.216-4.192-.811-1.003-1.899-1.504-3.264-1.504-.875 0-1.675.235-2.4.704-.704.47-1.259 1.13-1.664 1.984-.406.853-.608 1.845-.608 2.976l-.448-4.096c.298-1.237.97-2.261 2.016-3.072 1.045-.832 2.336-1.248 3.872-1.248ZM214.099 77.464c1.771 0 3.243.416 4.416 1.248 1.173.832 2.027 1.984 2.56 3.456l-.736 3.872c0-1.856-.501-3.328-1.504-4.416-.981-1.088-2.336-1.632-4.064-1.632-1.067 0-2.027.256-2.88.768a5.21 5.21 0 0 0-1.984 2.144c-.469.917-.704 1.963-.704 3.136 0 1.237.235 2.336.704 3.296a5.38 5.38 0 0 0 1.984 2.208c.853.533 1.813.8 2.88.8 1.728 0 3.083-.565 4.064-1.696 1.003-1.152 1.504-2.688 1.504-4.608l.736 4.192c-.555 1.472-1.419 2.635-2.592 3.488-1.152.832-2.613 1.248-4.384 1.248-1.557 0-2.933-.363-4.128-1.088-1.195-.725-2.133-1.76-2.816-3.104-.661-1.344-.992-2.901-.992-4.672 0-1.728.331-3.243.992-4.544.683-1.323 1.621-2.336 2.816-3.04 1.195-.704 2.571-1.056 4.128-1.056Zm6.24.352h2.88V96.44c0 1.11-.213 2.048-.64 2.816a4.188 4.188 0 0 1-1.856 1.792c-.789.427-1.749.64-2.88.64h-8.416V99.16h8.032c1.92 0 2.88-.917 2.88-2.752V77.816ZM245.078 70.136h2.528v2.432h-2.144c-1.451 0-2.176.715-2.176 2.144V95h-2.88V74.68c0-1.43.405-2.539 1.216-3.328.832-.81 1.984-1.216 3.456-1.216Zm-7.264 7.68h9.12v2.464h-9.12v-2.464ZM257.366 77.464c1.75 0 3.275.384 4.576 1.152a7.769 7.769 0 0 1 3.008 3.2c.704 1.365 1.056 2.901 1.056 4.608 0 1.707-.352 3.243-1.056 4.608a7.769 7.769 0 0 1-3.008 3.2c-1.301.768-2.826 1.152-4.576 1.152-1.749 0-3.274-.384-4.576-1.152a8.05 8.05 0 0 1-3.04-3.168c-.704-1.365-1.056-2.912-1.056-4.64 0-1.707.352-3.243 1.056-4.608.726-1.365 1.739-2.432 3.04-3.2 1.302-.768 2.827-1.152 4.576-1.152Zm0 2.752c-1.13 0-2.122.256-2.976.768-.832.512-1.482 1.237-1.952 2.176-.469.917-.704 2.005-.704 3.264s.235 2.357.704 3.296c.47.917 1.12 1.632 1.952 2.144.854.512 1.846.768 2.976.768 1.11 0 2.08-.256 2.912-.768.854-.512 1.515-1.237 1.984-2.176.47-.939.704-2.027.704-3.264 0-1.237-.234-2.325-.704-3.264-.469-.939-1.13-1.664-1.984-2.176-.832-.512-1.802-.768-2.912-.768ZM269.349 77.816h2.88V95h-2.88V77.816Zm9.376-.352v3.072h-1.088c-1.13 0-2.101.224-2.912.672-.81.448-1.429 1.11-1.856 1.984-.426.853-.64 1.877-.64 3.072l-.704-3.36c.299-1.643 1.046-2.955 2.24-3.936 1.216-1.003 2.87-1.504 4.96-1.504ZM294.271 71.416h3.072V95h-3.072V71.416Zm2.08 8.64h13.856v2.848h-13.856v-2.848Zm12.864-8.64h3.072V95h-3.072V71.416ZM324.426 77.496c1.685 0 3.168.363 4.448 1.088 1.28.704 2.283 1.717 3.008 3.04.725 1.301 1.088 2.827 1.088 4.576v1.088h-15.84V84.92h14.656l-1.824 1.504v-.672c0-1.13-.245-2.112-.736-2.944a4.73 4.73 0 0 0-1.984-1.952c-.832-.448-1.771-.672-2.816-.672a5.37 5.37 0 0 0-2.816.768A5.155 5.155 0 0 0 319.658 83a5.686 5.686 0 0 0-.704 2.784v.96c0 1.173.224 2.208.672 3.104a5.155 5.155 0 0 0 1.952 2.048c.853.49 1.835.736 2.944.736 1.173 0 2.165-.213 2.976-.64.832-.427 1.451-1.024 1.856-1.792h3.136a8.005 8.005 0 0 1-1.696 2.72c-.747.768-1.653 1.365-2.72 1.792-1.067.405-2.251.608-3.552.608-1.707 0-3.211-.363-4.512-1.088a7.823 7.823 0 0 1-3.04-3.136c-.725-1.365-1.088-2.944-1.088-4.736 0-1.77.352-3.328 1.056-4.672.725-1.344 1.739-2.379 3.04-3.104 1.301-.725 2.784-1.088 4.448-1.088ZM343.608 77.496c2.325 0 4.117.64 5.376 1.92 1.259 1.259 1.888 3.03 1.888 5.312V95h-2.88V84.28c0-1.301-.384-2.304-1.152-3.008-.747-.725-1.813-1.088-3.2-1.088-1.28 0-2.272.267-2.976.8-.704.512-1.131 1.237-1.28 2.176h-2.976a5.853 5.853 0 0 1 .992-2.848c.576-.853 1.387-1.536 2.432-2.048 1.067-.512 2.325-.768 3.776-.768Zm5.312 6.528.576 2.368-6.784 1.056c-1.493.235-2.539.597-3.136 1.088-.597.49-.896 1.11-.896 1.856 0 .661.277 1.195.832 1.6.576.405 1.365.608 2.368.608 1.109 0 2.133-.224 3.072-.672.939-.47 1.675-1.12 2.208-1.952.555-.853.832-1.813.832-2.88l1.12 1.184c0 1.301-.309 2.496-.928 3.584-.619 1.067-1.515 1.91-2.688 2.528-1.173.619-2.528.928-4.064.928-1.749 0-3.147-.427-4.192-1.28-1.024-.875-1.536-2.027-1.536-3.456 0-1.43.501-2.613 1.504-3.552 1.024-.96 2.635-1.61 4.832-1.952l6.88-1.056ZM368.212 70.392h2.88V95h-2.88V70.392Zm-6.144 7.072c1.728 0 3.168.416 4.32 1.248 1.173.832 2.027 1.984 2.56 3.456l-.736 4.192c0-1.963-.491-3.51-1.472-4.64-.981-1.152-2.315-1.728-4-1.728-1.088 0-2.059.267-2.912.8-.832.533-1.483 1.28-1.952 2.24-.469.96-.704 2.07-.704 3.328 0 1.259.235 2.368.704 3.328s1.12 1.707 1.952 2.24c.853.533 1.824.8 2.912.8 1.685 0 3.019-.565 4-1.696.981-1.152 1.472-2.71 1.472-4.672l.736 4.288c-.533 1.493-1.387 2.656-2.56 3.488-1.152.832-2.592 1.248-4.32 1.248-1.557 0-2.944-.363-4.16-1.088-1.195-.747-2.123-1.792-2.784-3.136-.661-1.365-.992-2.944-.992-4.736 0-1.792.331-3.37.992-4.736.661-1.365 1.589-2.41 2.784-3.136 1.216-.725 2.603-1.088 4.16-1.088ZM376.224 70.392h2.88V95h-2.88V70.392ZM390.926 77.496c1.685 0 3.168.363 4.448 1.088 1.28.704 2.283 1.717 3.008 3.04.725 1.301 1.088 2.827 1.088 4.576v1.088h-15.84V84.92h14.656l-1.824 1.504v-.672c0-1.13-.245-2.112-.736-2.944a4.73 4.73 0 0 0-1.984-1.952c-.832-.448-1.771-.672-2.816-.672a5.37 5.37 0 0 0-2.816.768A5.155 5.155 0 0 0 386.158 83a5.686 5.686 0 0 0-.704 2.784v.96c0 1.173.224 2.208.672 3.104a5.155 5.155 0 0 0 1.952 2.048c.853.49 1.835.736 2.944.736 1.173 0 2.165-.213 2.976-.64.832-.427 1.451-1.024 1.856-1.792h3.136a8.005 8.005 0 0 1-1.696 2.72c-.747.768-1.653 1.365-2.72 1.792-1.067.405-2.251.608-3.552.608-1.707 0-3.211-.363-4.512-1.088a7.823 7.823 0 0 1-3.04-3.136c-.725-1.365-1.088-2.944-1.088-4.736 0-1.77.352-3.328 1.056-4.672.725-1.344 1.739-2.379 3.04-3.104 1.301-.725 2.784-1.088 4.448-1.088ZM408.859 77.464c1.344 0 2.517.245 3.52.736 1.002.47 1.76 1.12 2.272 1.952.533.832.8 1.76.8 2.784h-2.976c-.022-.832-.363-1.515-1.024-2.048-.662-.555-1.536-.832-2.624-.832s-1.931.213-2.528.64c-.576.427-.864.97-.864 1.632 0 .597.181 1.077.544 1.44.384.363 1.12.661 2.208.896l2.752.608c1.194.256 2.144.619 2.848 1.088.725.47 1.248 1.035 1.568 1.696.32.64.48 1.387.48 2.24 0 1.557-.587 2.795-1.76 3.712-1.174.917-2.816 1.376-4.928 1.376-2.326 0-4.107-.523-5.344-1.568-1.238-1.067-1.856-2.443-1.856-4.128h2.944c.021.939.394 1.696 1.12 2.272.746.555 1.834.832 3.264.832 1.173 0 2.058-.224 2.656-.672.618-.47.928-1.067.928-1.792 0-.683-.224-1.216-.672-1.6-.427-.384-1.184-.693-2.272-.928l-2.912-.608c-1.622-.363-2.795-.95-3.52-1.76-.704-.832-1.056-1.867-1.056-3.104 0-.917.245-1.739.736-2.464.512-.747 1.248-1.333 2.208-1.76.96-.427 2.122-.64 3.488-.64ZM425.39 77.464c1.344 0 2.517.245 3.52.736 1.003.47 1.76 1.12 2.272 1.952.533.832.8 1.76.8 2.784h-2.976c-.021-.832-.363-1.515-1.024-2.048-.661-.555-1.536-.832-2.624-.832s-1.931.213-2.528.64c-.576.427-.864.97-.864 1.632 0 .597.181 1.077.544 1.44.384.363 1.12.661 2.208.896l2.752.608c1.195.256 2.144.619 2.848 1.088.725.47 1.248 1.035 1.568 1.696.32.64.48 1.387.48 2.24 0 1.557-.587 2.795-1.76 3.712-1.173.917-2.816 1.376-4.928 1.376-2.325 0-4.107-.523-5.344-1.568-1.237-1.067-1.856-2.443-1.856-4.128h2.944c.021.939.395 1.696 1.12 2.272.747.555 1.835.832 3.264.832 1.173 0 2.059-.224 2.656-.672.619-.47.928-1.067.928-1.792 0-.683-.224-1.216-.672-1.6-.427-.384-1.184-.693-2.272-.928l-2.912-.608c-1.621-.363-2.795-.95-3.52-1.76-.704-.832-1.056-1.867-1.056-3.104 0-.917.245-1.739.736-2.464.512-.747 1.248-1.333 2.208-1.76.96-.427 2.123-.64 3.488-.64Z"/></svg>