<svg xmlns="http://www.w3.org/2000/svg" width="605" height="114" fill="none"><g clip-path="url(#a)"><mask id="b" width="603" height="112" x="1" y="1" maskUnits="userSpaceOnUse" style="mask-type:luminance"><path fill="#fff" d="M600 1H5a4 4 0 0 0-4 4v104a4 4 0 0 0 4 4h595a4 4 0 0 0 4-4V5a4 4 0 0 0-4-4Z"/></mask><g mask="url(#b)"><path fill="#24232D" d="M600 1H5a4 4 0 0 0-4 4v104a4 4 0 0 0 4 4h595a4 4 0 0 0 4-4V5a4 4 0 0 0-4-4Z"/><path fill="#fff" d="M49.803 31.953c0-1.808-1.275-3.092-3.333-3.092-1.667 0-2.86.788-2.86 2.09 0 3.603 8.89.682 8.89 7.036 0 3.049-2.572 4.776-5.865 4.776-2.76 0-5.057-1.26-5.92-3.588l2.339-2.425c0 2.154 1.357 3.516 3.58 3.516 1.745 0 3.046-.832 3.046-2.175 0-3.647-8.89-.725-8.89-6.952 0-2.878 2.552-4.776 5.68-4.776 2.81 0 4.77 1.394 5.537 3.303l-2.204 2.287Z"/><path fill="#fff" d="M56.663 27.135v4.218h3.005v2.351h-3.005v4.948c0 1.257.432 1.578 1.462 1.578a8.311 8.311 0 0 0 1.42-.171v2.41c-.37.149-1.44.256-1.79.256-2.45 0-3.768-1.066-3.768-3.689v-5.332H52.05v-2.347h1.938V29.91l2.676-2.774ZM114.995 27.135v4.218H118v2.351h-3.005v4.948c0 1.257.432 1.578 1.462 1.578a8.312 8.312 0 0 0 1.42-.171v2.41c-.37.149-1.441.256-1.791.256-2.449 0-3.766-1.066-3.766-3.689v-5.332h-1.939v-2.347h1.939V29.91l2.675-2.774ZM82.99 34.106l-2.367 1.428c-.247-1.259-1.357-2.047-2.675-2.047-1.744 0-2.984 1.236-2.984 3.369 0 2.132 1.214 3.376 2.984 3.376 1.276 0 2.367-.874 2.675-1.983l2.305 1.386c-.72 1.77-2.593 3.134-4.98 3.134-3.437 0-5.762-2.41-5.762-5.906 0-3.475 2.407-5.907 5.762-5.907 2.366-.005 4.342 1.36 5.042 3.15ZM86.34 26.773v8.658l4.013-4.073h3.58l-4.61 4.627 4.713 6.456h-3.272l-3.314-4.585-1.11 1.105v3.48h-2.676V26.773h2.675ZM97.239 26.773v5.755c.823-.959 1.996-1.577 3.56-1.577 3.169 0 5.392 2.559 5.392 5.95 0 3.347-2.223 5.863-5.412 5.863-1.565 0-2.737-.619-3.56-1.578v1.255h-2.655V26.773h2.675Zm3.025 13.477c1.811 0 3.149-1.344 3.149-3.348 0-2.047-1.338-3.433-3.149-3.433-1.708 0-3.108 1.343-3.108 3.433 0 2.045 1.405 3.346 3.108 3.346v.002ZM106.91 26.773h2.778v2.772h-2.778v-2.772Zm2.714 4.585v11.083h-2.675V31.356l2.675.002Z"/><path fill="#04A29F" d="M20.161 25c-.416 0-.827.085-1.21.25a3.156 3.156 0 0 0-1.027.711 3.286 3.286 0 0 0-.685 1.064A3.38 3.38 0 0 0 17 28.28v4.913c0 .404.108.8.313 1.145.204.344.497.623.845.805l4.115 2.14V30.46h6.582L34.113 25H20.16Z"/><path fill="#04A29F" d="M30.962 42.743c.839 0 1.642-.345 2.235-.96a3.336 3.336 0 0 0 .925-2.315v-4.913c0-.405-.109-.802-.314-1.146a2.136 2.136 0 0 0-.849-.804l-4.104-2.146v6.824h-6.582l-5.262 5.46h13.951Z"/><path fill="#fff" d="M71.448 42.441h-2.58l.04-1.39c-.824 1.026-2.042 1.707-3.672 1.707-3.199 0-5.428-2.523-5.428-5.88 0-3.399 2.208-5.965 5.407-5.965 1.55 0 2.724.62 3.548 1.56v-1.15h2.683l.002 11.118Zm-5.72-2.205c1.713 0 3.137-1.305 3.137-3.356 0-2.096-1.424-3.443-3.137-3.443-1.795 0-3.136 1.39-3.136 3.443.007 2.013 1.344 3.36 3.14 3.36l-.004-.004ZM17.32 66.25l8.928 23.52h3.072l9.088-23.52h-2.912l-7.68 20.127-7.584-20.127H17.32Zm23.83 6.88v16.64h2.625V73.13H41.15Zm-.287-3.68h3.232v-3.2h-3.232v3.2Zm13.772 3.168c-3.552 0-6.56 2.112-6.56 5.023 0 6.656 10.784 3.68 10.784 7.776 0 1.825-1.696 2.624-3.968 2.624-2.848 0-4.672-1.504-4.768-4.063l-2.624 1.088c.48 2.944 3.072 5.183 7.392 5.183 4.192 0 6.816-1.887 6.816-5.023 0-6.465-10.912-3.617-10.912-7.745 0-1.503 1.408-2.655 3.84-2.655 2.656 0 4.192 1.408 4.352 3.616l2.496-.928c-.352-2.912-3.04-4.896-6.848-4.896Zm25.096.511h-2.624v9.088c0 3.648-1.856 5.728-4.928 5.728-2.72 0-4.096-1.503-4.096-4.511V73.129H65.46v10.688c0 4 2.304 6.433 6.208 6.433 2.336 0 4.256-.832 5.44-2.849v2.368h2.624V73.13Zm3.994 12.416c0 2.817 2.304 4.704 5.568 4.704 2.4 0 4.672-.8 6.048-2.751l.736 2.271h2.272l-.512-3.04v-8.608c0-3.551-2.528-5.503-6.688-5.503-3.744 0-6.752 2.144-7.008 5.312l2.4.96c0-2.752 2.048-4.097 4.608-4.097 2.144 0 4.096.736 4.096 2.752 0 1.793-.736 2.049-6.112 3.008-3.232.576-5.408 2.177-5.408 4.993Zm2.816-.127c0-1.825 1.44-2.529 3.328-2.88 3.776-.769 4.832-.897 5.376-1.44v1.951c0 2.88-1.984 5.088-5.408 5.088-2.08 0-3.296-1.183-3.296-2.72Zm16.239-19.169v23.52h2.624V66.25h-2.624Zm15.541 23.52h15.52v-2.431h-12.832v-8.32h11.84v-2.433h-11.84v-7.903h12.768v-2.433h-15.456v23.52Zm36.528-23.52h-2.624v9.537c-1.376-1.92-3.552-3.168-6.464-3.168-5.12 0-8.448 3.904-8.448 8.832 0 4.895 3.328 8.8 8.448 8.8 2.912 0 5.088-1.249 6.464-3.136v2.655h2.624V66.25Zm-14.848 15.2c0-3.552 2.24-6.431 6.144-6.431 3.808 0 6.144 2.88 6.144 6.431 0 3.552-2.336 6.4-6.144 6.4-3.904 0-6.144-2.88-6.144-6.4Zm19.837-8.32v16.64h2.624V73.13h-2.624Zm-.288-3.68h3.232v-3.2h-3.232v3.2Zm9.132-.48v4.16h-2.912v2.4h2.912v9.889c0 3.487 1.792 4.767 5.056 4.767.48 0 1.536-.096 2.016-.288v-2.336c-.448.096-1.184.192-1.6.192-1.824 0-2.848-.287-2.848-2.656V75.53h4.8v-2.4h-4.8v-6.144l-2.624 1.983Zm11.125 4.16v16.64h2.624V73.13h-2.624Zm-.288-3.68h3.232v-3.2h-3.232v3.2Zm7.788 3.68v16.64h2.624v-9.023c0-3.68 1.92-5.728 5.088-5.728 2.784 0 4.256 1.632 4.256 4.736v10.015h2.624v-10.4c0-4.192-2.336-6.72-6.4-6.72-2.56 0-4.384.96-5.568 2.849v-2.369h-2.624Zm32.658 0v2.496c-1.344-1.823-3.456-3.007-6.144-3.007-5.088 0-8.352 3.776-8.352 8.48 0 4.704 3.264 8.448 8.352 8.448 2.688 0 4.8-1.184 6.144-3.009v2.72c0 3.392-2.304 5.536-5.92 5.536-3.136 0-5.152-1.408-6.048-4.256l-2.304 1.6c1.28 3.296 4.064 4.992 8.352 4.992 5.216 0 8.544-2.976 8.544-7.744V73.13h-2.624Zm-11.808 7.968c0-3.36 2.208-6.08 6.016-6.08 3.712 0 5.856 2.689 5.856 6.08 0 3.36-2.144 6.049-5.856 6.049-3.808 0-6.016-2.72-6.016-6.049Zm33.116-15.36c-3.168 0-5.152 2.209-5.152 5.345v2.047h-2.944v2.337h2.944v14.303h2.624V75.466h5.056v-2.337h-5.056v-1.984c0-2.175 1.152-3.04 3.008-3.04.576 0 1.28.064 1.792.224v-2.335c-.672-.16-1.6-.257-2.272-.257Zm13.591 6.88c-4.96 0-8.832 3.584-8.832 8.832 0 5.216 3.872 8.8 8.832 8.8 4.96 0 8.864-3.584 8.864-8.8 0-5.248-3.904-8.831-8.864-8.831Zm-6.144 8.832c0-3.871 2.56-6.4 6.144-6.4 3.616 0 6.176 2.528 6.176 6.4 0 3.84-2.56 6.368-6.176 6.368-3.52 0-6.144-2.527-6.144-6.367Zm18.775-8.32v16.64h2.624v-8.064c0-4.608 2.208-6.207 5.216-6.207.448 0 .896.063 1.312.16v-2.72a5.545 5.545 0 0 0-1.024-.097c-1.824 0-4.224.705-5.504 3.169v-2.88h-2.624Zm20.108-6.88v23.52h2.688V79.241h12.416V89.77h2.688V66.25h-2.688v10.56h-12.416V66.25h-2.688Zm30.339 6.369c-4.704 0-8.16 3.808-8.16 8.832 0 5.215 3.392 8.8 8.416 8.8 2.976 0 6.048-1.216 7.52-4.032l-2.016-1.697c-.992 2.305-2.816 3.392-5.472 3.392-3.04 0-5.408-1.888-5.728-5.6h13.408c.032-.383.064-.8.064-1.151 0-5.089-3.008-8.544-8.032-8.544Zm-5.408 7.584c.448-3.424 2.72-5.248 5.408-5.248 3.104 0 5.184 1.984 5.184 5.248h-10.592Zm16.629 5.344c0 2.816 2.304 4.703 5.568 4.703 2.4 0 4.672-.8 6.048-2.751l.736 2.271h2.272l-.512-3.04v-8.608c0-3.551-2.528-5.503-6.688-5.503-3.744 0-6.752 2.144-7.008 5.312l2.4.96c0-2.752 2.048-4.097 4.608-4.097 2.144 0 4.096.736 4.096 2.752 0 1.793-.736 2.049-6.112 3.008-3.232.576-5.408 2.177-5.408 4.993Zm2.816-.129c0-1.823 1.44-2.528 3.328-2.88 3.776-.768 4.832-.896 5.376-1.44v1.953c0 2.88-1.984 5.088-5.408 5.088-2.08 0-3.296-1.184-3.296-2.72Zm32.526-19.168h-2.624v9.537c-1.376-1.92-3.552-3.168-6.464-3.168-5.12 0-8.448 3.904-8.448 8.832 0 4.895 3.328 8.8 8.448 8.8 2.912 0 5.088-1.249 6.464-3.136v2.655h2.624V66.25Zm-14.848 15.2c0-3.552 2.24-6.431 6.144-6.431 3.808 0 6.144 2.88 6.144 6.431 0 3.552-2.336 6.4-6.144 6.4-3.904 0-6.144-2.88-6.144-6.4Zm19.998-15.2v23.52h2.624V66.25h-2.624Zm14.724 6.369c-4.704 0-8.16 3.808-8.16 8.832 0 5.215 3.392 8.8 8.416 8.8 2.976 0 6.048-1.216 7.52-4.032l-2.016-1.697c-.992 2.305-2.816 3.392-5.472 3.392-3.04 0-5.408-1.888-5.728-5.6h13.408c.032-.383.064-.8.064-1.151 0-5.089-3.008-8.544-8.032-8.544Zm-5.408 7.584c.448-3.424 2.72-5.248 5.408-5.248 3.104 0 5.184 1.984 5.184 5.248h-10.592Zm23.445-7.584c-3.552 0-6.56 2.112-6.56 5.023 0 6.656 10.784 3.68 10.784 7.776 0 1.825-1.696 2.624-3.968 2.624-2.848 0-4.672-1.504-4.768-4.063l-2.624 1.088c.48 2.944 3.072 5.183 7.392 5.183 4.192 0 6.816-1.887 6.816-5.023 0-6.465-10.912-3.617-10.912-7.745 0-1.503 1.408-2.655 3.84-2.655 2.656 0 4.192 1.408 4.352 3.616l2.496-.928c-.352-2.912-3.04-4.896-6.848-4.896Zm16.969 0c-3.552 0-6.56 2.112-6.56 5.023 0 6.656 10.784 3.68 10.784 7.776 0 1.825-1.696 2.624-3.968 2.624-2.848 0-4.672-1.504-4.768-4.063l-2.624 1.088c.48 2.944 3.072 5.183 7.392 5.183 4.192 0 6.816-1.887 6.816-5.023 0-6.465-10.912-3.617-10.912-7.745 0-1.503 1.408-2.655 3.84-2.655 2.656 0 4.192 1.408 4.352 3.616l2.496-.928c-.352-2.912-3.04-4.896-6.848-4.896Z"/><path fill="#04A29F" stroke="#04A29F" stroke-width="1.271" d="m527.597 38.88 6.228-2.242c.287-.104.599-.117.893-.038l52.125 13.967a.294.294 0 0 1 .207.36L576.326 90.95a1.497 1.497 0 0 1-.946 1.022l-6.408 2.261c-.284.1-.592.113-.884.035l-50.802-13.613a1.495 1.495 0 0 1-1.057-1.83L526.66 39.9c.126-.473.477-.854.937-1.02Z"/><mask id="c" width="33" height="33" x="544" y="56" maskUnits="userSpaceOnUse" style="mask-type:luminance"><path fill="#fff" d="m576.112 63.052-25.197-6.751-6.752 25.197 25.198 6.752 6.751-25.198Z"/></mask><g mask="url(#c)"><path fill="#04A29F" d="m569.594 74.809-6.018-1.613-.461 1.72 4.127 1.105c-1.293 2.418-3.76 4.06-6.484 4.253l-7.238-12.537c1.838-2.733 5.337-4.099 8.69-3.2 2.58.69 4.555 2.602 5.487 4.972l1.589-.773c-1.097-2.782-3.434-5.066-6.615-5.919-4.471-1.198-9.106.97-11.18 4.93l8.307 14.389c4.404.074 8.598-2.857 9.796-7.327Zm-18.937-4.983c-.645 2.408-.322 4.983 1 7.272 1.322 2.289 3.476 3.88 5.797 4.502l-6.797-11.773Z"/><path fill="#24232D" d="M563.363 60.238c-6.62-1.774-13.488 2.191-15.262 8.811-1.774 6.62 2.191 13.488 8.811 15.262 6.62 1.774 13.488-2.191 15.262-8.811 1.774-6.62-2.191-13.488-8.811-15.262Zm-11.728 16.946c-1.322-2.29-1.623-4.95-1.001-7.272l6.883 11.797c-2.384-.731-4.561-2.236-5.882-4.525Zm8.101 4.843-8.245-14.281c2.075-3.96 6.71-6.127 11.181-4.929 3.181.852 5.517 3.137 6.615 5.92l-1.589.771c-.932-2.369-2.908-4.28-5.487-4.971-3.353-.899-6.766.49-8.69 3.2l7.238 12.536c2.723-.191 5.191-1.834 6.484-4.252l-4.127-1.106.461-1.72 6.018 1.614c-1.198 4.47-5.393 7.4-9.859 7.218Z"/></g><path fill="#24232D" stroke="#04A29F" stroke-width="1.271" d="m461.691 21.25 6.226-2.23c.287-.103.597-.115.891-.037l52.144 13.972c.157.042.25.203.208.36l-10.691 39.9c-.128.477-.483.86-.948 1.023l-6.406 2.25c-.284.1-.591.111-.882.033l-50.822-13.617a1.494 1.494 0 0 1-1.056-1.83l10.397-38.803c.127-.474.478-.855.939-1.02Z"/><mask id="d" width="40" height="30" x="470" y="39" maskUnits="userSpaceOnUse" style="mask-type:luminance"><path fill="#fff" d="m509.863 48.325-33.509-8.98-5.401 20.159 33.509 8.978 5.401-20.157Z"/></mask><g mask="url(#d)"><path fill="#04A29F" d="M493.109 43.835c-4.468-1.197-7.859.289-10.173 4.457 2.274-1.785 4.453-2.099 6.538-.942 1.189.66 1.852 1.83 2.586 3.123 1.196 2.108 2.58 4.547 6.733 5.66 4.468 1.197 7.859-.289 10.173-4.458-2.274 1.785-4.453 2.1-6.538.942-1.189-.66-1.852-1.829-2.586-3.122-1.196-2.108-2.58-4.547-6.733-5.66Zm-11.071 7.808c-4.468-1.197-7.859.289-10.173 4.457 2.274-1.785 4.453-2.099 6.538-.942 1.189.66 1.852 1.83 2.586 3.123 1.196 2.108 2.58 4.547 6.733 5.66 4.468 1.197 7.859-.289 10.173-4.458-2.274 1.786-4.453 2.1-6.538.942-1.189-.66-1.852-1.829-2.586-3.122-1.196-2.108-2.58-4.547-6.733-5.66Z"/></g><path fill="#24232D" stroke="#04A29F" stroke-width="1.271" d="m594.166 56.748 6.229-2.243c.286-.103.598-.117.893-.038l52.124 13.967c.157.042.25.203.208.36l-10.725 40.024a1.492 1.492 0 0 1-.946 1.022l-6.407 2.261a1.49 1.49 0 0 1-.884.035l-50.802-13.612a1.494 1.494 0 0 1-1.057-1.83l10.43-38.927c.127-.473.477-.854.937-1.02ZM608.151 4.575l6.228-2.243c.287-.103.598-.116.893-.037l52.124 13.966c.157.042.25.203.208.36L656.88 56.645a1.497 1.497 0 0 1-.946 1.022l-6.408 2.262c-.284.1-.593.112-.884.034L597.84 46.35a1.495 1.495 0 0 1-1.057-1.83l10.43-38.927c.127-.473.477-.854.938-1.02ZM513.603 91.11l6.228-2.242c.287-.103.599-.116.893-.037l52.124 13.966c.157.042.25.203.208.36l-10.724 40.024a1.496 1.496 0 0 1-.946 1.022l-6.408 2.262c-.284.1-.592.112-.884.034l-50.802-13.612a1.496 1.496 0 0 1-1.057-1.831l10.431-38.926c.126-.473.476-.853.937-1.02Z"/><mask id="e" width="33" height="33" x="529" y="108" maskUnits="userSpaceOnUse" style="mask-type:luminance"><path fill="#fff" d="m561.926 114.903-25.197-6.752-6.752 25.197 25.198 6.752 6.751-25.197Z"/></mask><g mask="url(#e)"><path fill="#04A29F" d="m549.814 112.07 8.192 8.192c.309.309.429.759.316 1.181l-2.998 11.191a1.222 1.222 0 0 1-.865.864l-11.19 2.999a1.223 1.223 0 0 1-1.181-.317l-8.192-8.192a1.222 1.222 0 0 1-.317-1.181l2.999-11.19c.113-.422.443-.752.865-.865l11.19-2.998c.422-.113.872.008 1.181.316Zm-1.79 1.957-8.917 2.389a1.223 1.223 0 0 0-.865.865l-2.389 8.917a1.22 1.22 0 0 0 .316 1.181l6.528 6.528c.309.309.759.43 1.181.317l8.917-2.39c.422-.113.752-.442.865-.864l2.389-8.917a1.224 1.224 0 0 0-.316-1.182l-6.528-6.527a1.223 1.223 0 0 0-1.181-.317Z"/></g><path fill="#04A29F" stroke="#04A29F" stroke-width="1.271" d="m447.721 73.441 6.226-2.23c.287-.103.598-.116.891-.037l52.145 13.972a.294.294 0 0 1 .207.36l-10.691 39.899c-.128.477-.482.86-.948 1.024l-6.405 2.249a1.5 1.5 0 0 1-.882.034l-50.822-13.618a1.494 1.494 0 0 1-1.057-1.83l10.397-38.803c.127-.473.478-.854.939-1.02Z"/><path fill="#24232D" stroke="#24232D" stroke-width=".486" d="m465.696 96.724 7.783 2.086-.166.622-7.07-1.894-1.255 4.683 6.648 1.782-.167.622-6.648-1.781-1.378 5.142 7.151 1.916-.167.622-7.864-2.107 3.133-11.693Zm8.481 2.272.827.222 2.286 6.124 5.124-4.138 6.845-5.167-11.643 9.972 2.703 7.165-.86-.23-2.458-6.521-5.406 4.414-.843-.226 5.956-4.846-2.531-6.769Zm9.416 3.191.167-.623 8.87 2.377-.167.622-4.086-1.095-2.967 11.071-.713-.191 2.966-11.071-4.07-1.09ZM455.963 94.126l.892.239 7.337 21.807-3.255-8.181-4.465-12.78-2.929 10.799-.713-.191 3.133-11.693ZM489.662 114.802a.261.261 0 0 0 .325-.193.26.26 0 0 0-.185-.328.262.262 0 0 0-.325.192c-.039.147.04.29.185.329Zm.885-.498c-.116.434.119.8.572.921.482.13.852-.084.987-.591l.479-1.785-.389-.104-.478 1.783c-.075.282-.256.394-.504.328-.222-.06-.336-.24-.285-.449l-.382-.103Zm2.052.526c-.093.458.203.847.758.995.594.159 1.046-.044 1.175-.526.102-.379-.054-.646-.535-.904l-.258-.142c-.305-.164-.41-.303-.361-.483.061-.227.305-.321.612-.239.292.079.454.278.428.52l.379.101c.091-.431-.2-.829-.709-.965-.546-.147-.991.055-1.111.504-.1.37.048.646.472.874l.302.165c.31.167.425.322.374.514-.06.224-.333.325-.645.241-.335-.089-.527-.304-.496-.552l-.385-.103Z"/><path fill="#24232D" stroke="#04A29F" stroke-width="1.271" d="m580.163 108.92 6.229-2.242c.286-.104.598-.117.893-.038l52.124 13.967c.157.042.25.203.208.36l-10.725 40.024a1.492 1.492 0 0 1-.946 1.022l-6.407 2.261a1.49 1.49 0 0 1-.884.035l-50.802-13.613a1.493 1.493 0 0 1-1.057-1.83l10.43-38.926c.127-.473.477-.854.937-1.02Z"/></g><path stroke="#04A29F" d="M600 .5H5A4.5 4.5 0 0 0 .5 5v104a4.5 4.5 0 0 0 4.5 4.5h595a4.5 4.5 0 0 0 4.5-4.5V5A4.5 4.5 0 0 0 600 .5Z"/><path fill="#778089" d="M124.275 42V31.92h1.26v3.612c0 .07.042.098.098.098.07 0 .112-.042.154-.098.56-.714 1.386-1.022 2.408-1.022 1.764 0 3.584 1.19 3.584 3.85s-1.82 3.85-3.584 3.85c-1.078 0-1.932-.378-2.492-1.148-.056-.084-.098-.112-.154-.112-.07 0-.112.028-.14.112l-.294.938h-.84Zm1.19-3.64c0 1.75 1.05 2.73 2.52 2.73s2.52-.98 2.52-2.73-1.05-2.73-2.52-2.73-2.52.98-2.52 2.73ZM132.49 35v-.28h1.274l2.086 6.118c.028.084.056.112.14.112.084 0 .112-.028.14-.112l2.086-6.118h1.274V35l-2.73 7.84c-.476 1.372-1.176 1.82-2.716 1.82h-1.176v-1.12h2.086c.161 0 .252-.056.294-.175l.392-1.057c.042-.112.056-.182.014-.238-.042-.056-.07-.07-.182-.07h-.546l-2.436-7ZM144.786 42V31.92h2.45l3.22 8.666c.028.07.07.084.14.084s.098-.042.098-.112V31.92h1.344V42h-2.45l-3.22-8.666c-.028-.07-.07-.084-.14-.084s-.098.042-.098.112V42h-1.344ZM153.714 38.36c0-2.38 1.428-3.85 3.668-3.85 2.268 0 3.472 1.47 3.472 3.5v.7h-5.887c.091 1.638 1.092 2.408 2.443 2.408 1.358 0 1.953-.602 2.156-1.428h1.316c-.21 1.106-1.162 2.52-3.472 2.52-2.408 0-3.696-1.47-3.696-3.85Zm3.668-2.758c-1.204 0-2.17.686-2.38 2.058h4.592c-.056-1.344-.882-2.058-2.212-2.058ZM161.432 35.84v-1.12h1.68v-1.96h1.26v1.96h2.1v1.12h-2.1v4.83c0 .07.014.112.056.154.042.042.084.056.154.056h1.89V42h-1.26c-1.421 0-2.1-.679-2.1-2.1v-4.06h-1.68ZM167.875 31.92h1.26V42h-1.26V31.92ZM170.821 31.92h1.82v1.68h-1.82v-1.68Zm.28 2.8h1.26V42h-1.26v-7.28ZM173.67 35.84v-1.12h1.75v-.49c0-1.561.756-2.31 2.31-2.31h1.4v1.12h-2.24c-.07 0-.112.014-.154.056-.042.042-.056.084-.056.154v1.47h2.1v1.12h-2.1V42h-1.26v-6.16h-1.75ZM179.398 35v-.28h1.274l2.086 6.118c.028.084.056.112.14.112.084 0 .112-.028.14-.112l2.086-6.118h1.274V35l-2.73 7.84c-.476 1.372-1.176 1.82-2.716 1.82h-1.176v-1.12h2.086c.161 0 .252-.056.294-.175l.392-1.057c.042-.112.056-.182.014-.238-.042-.056-.07-.07-.182-.07h-.546l-2.436-7Z"/></g><defs><clipPath id="a"><path fill="#fff" d="M0 0h605v114H0z"/></clipPath></defs></svg>