<svg width="1006" height="242" viewBox="0 0 1006 242" fill="none" xmlns="http://www.w3.org/2000/svg">
<g clip-path="url(#clip0_934_45034)">
<rect x="2" y="2" width="1002" height="238" rx="4" fill="#24232D"/>
<path d="M66.8034 47.9525C66.8034 46.1447 65.5277 44.8611 63.4698 44.8611C61.8026 44.8611 60.6093 45.6495 60.6093 46.9501C60.6093 50.5538 69.5001 47.6331 69.5001 53.9866C69.5001 57.0358 66.9275 58.7633 63.6346 58.7633C60.8749 58.7633 58.5776 57.5028 57.7148 55.1748L60.0539 52.7503C60.0539 54.9036 61.4109 56.2655 63.6346 56.2655C65.3794 56.2655 66.6803 55.4339 66.6803 54.0911C66.6803 50.4443 57.7895 53.3659 57.7895 47.139C57.7895 44.2605 60.3418 42.3633 63.4698 42.3633C66.2809 42.3633 68.2409 43.7573 69.0067 45.6656L66.8034 47.9525Z" fill="white"/>
<path d="M73.6629 43.1348V47.353H76.6679V49.7042H73.6629V54.6516C73.6629 55.9091 74.0952 56.2295 75.1247 56.2295C75.6018 56.2135 76.0768 56.1564 76.5448 56.0587V58.4692C76.1745 58.6178 75.1043 58.7253 74.7544 58.7253C72.3048 58.7253 70.9875 57.6587 70.9875 55.0363V49.7042H69.0488V47.3571H70.9875V45.9088L73.6629 43.1348Z" fill="white"/>
<path d="M131.995 43.1348V47.353H135V49.7042H131.995V54.6516C131.995 55.9091 132.427 56.2295 133.457 56.2295C133.934 56.2135 134.409 56.1564 134.877 56.0587V58.4692C134.507 58.6178 133.436 58.7253 133.086 58.7253C130.637 58.7253 129.32 57.6587 129.32 55.0363V49.7042H127.381V47.3571H129.32V45.9088L131.995 43.1348Z" fill="white"/>
<path d="M99.9898 50.1057L97.6227 51.5339C97.3765 50.2754 96.2656 49.487 94.9483 49.487C93.2035 49.487 91.9637 50.7234 91.9637 52.8556C91.9637 54.9879 93.1783 56.2322 94.9483 56.2322C96.2239 56.2322 97.3145 55.3575 97.6227 54.2487L99.9278 55.6347C99.2076 57.4043 97.3348 58.7692 94.9483 58.7692C91.511 58.7692 89.1855 56.3588 89.1855 52.8626C89.1855 49.3876 91.5934 46.9561 94.9483 46.9561C97.3144 46.951 99.29 48.316 99.9898 50.1057Z" fill="white"/>
<path d="M103.339 42.7734V51.4309L107.353 47.3583H110.933L106.323 51.9853L111.036 58.4413H107.764L104.45 53.8564L103.339 54.9612V58.4413H100.664V42.7734H103.339Z" fill="white"/>
<path d="M114.239 42.7734V48.5284C115.062 47.5692 116.235 46.9505 117.799 46.9505C120.968 46.9505 123.191 49.5096 123.191 52.9003C123.191 56.2478 120.968 58.7637 117.779 58.7637C116.214 58.7637 115.041 58.145 114.219 57.1859V58.4413H111.563V42.7734H114.239ZM117.264 56.2498C119.075 56.2498 120.413 54.906 120.413 52.9023C120.413 50.8554 119.075 49.4694 117.264 49.4694C115.556 49.4694 114.156 50.8123 114.156 52.9023C114.156 54.9472 115.561 56.2478 117.264 56.2478V56.2498Z" fill="white"/>
<path d="M123.91 42.7734H126.688V45.5454H123.91V42.7734ZM126.624 47.3583V58.4413H123.949V47.3563L126.624 47.3583Z" fill="white"/>
<path d="M37.161 41C36.7455 41 36.3341 41.0849 35.9502 41.2498C35.5664 41.4147 35.2177 41.6564 34.9241 41.9611C34.6305 42.2657 34.3978 42.6274 34.2392 43.0253C34.0807 43.4232 33.9994 43.8497 34 44.2802V49.1925C34 49.5968 34.1082 49.9932 34.3127 50.3376C34.5172 50.682 34.81 50.9607 35.1584 51.1429L39.2732 53.2832V46.4586H45.8551L51.1128 41H37.161Z" fill="#687AF0"/>
<path d="M47.9625 58.7432C48.8007 58.7429 49.6044 58.3977 50.197 57.7836C50.7896 57.1694 51.1225 56.3365 51.1225 55.468V50.5547C51.1222 50.15 51.0132 49.7533 50.8078 49.4091C50.6024 49.0648 50.3086 48.7865 49.9593 48.6053L45.8551 46.459V53.2835H39.2733L34.0107 58.7432H47.9625Z" fill="#687AF0"/>
<path d="M88.4475 58.441H87.9551H85.8681L85.9088 57.051C85.0839 58.0774 83.8664 58.7584 82.2359 58.7584C79.0371 58.7584 76.8076 56.2355 76.8076 52.8789C76.8076 49.4792 79.0158 46.9131 82.2146 46.9131C83.7656 46.9131 84.9385 47.5328 85.7634 48.4738V47.3229H88.4465L88.4475 58.441ZM82.7284 56.2365C84.4412 56.2365 85.8652 54.9308 85.8652 52.8799C85.8652 50.7839 84.4412 49.437 82.7284 49.437C80.9331 49.437 79.5916 50.827 79.5916 52.8799C79.5993 54.8926 80.936 56.2395 82.7313 56.2395L82.7284 56.2365Z" fill="white"/>
<path d="M34.32 82.2495L43.248 105.77H46.32L55.408 82.2495H52.496L44.816 102.378L37.232 82.2495H34.32ZM58.1508 89.1295V105.77H60.7748V89.1295H58.1508ZM57.8628 85.4495H61.0948V82.2495H57.8628V85.4495ZM71.6348 88.6175C68.0828 88.6175 65.0748 90.7295 65.0748 93.6415C65.0748 100.298 75.8588 97.3215 75.8588 101.418C75.8588 103.242 74.1628 104.042 71.8908 104.042C69.0428 104.042 67.2188 102.538 67.1228 99.9775L64.4988 101.066C64.9788 104.01 67.5708 106.25 71.8908 106.25C76.0828 106.25 78.7068 104.362 78.7068 101.226C78.7068 94.7615 67.7948 97.6095 67.7948 93.4815C67.7948 91.9775 69.2028 90.8255 71.6348 90.8255C74.2908 90.8255 75.8268 92.2335 75.9868 94.4415L78.4828 93.5135C78.1308 90.6015 75.4428 88.6175 71.6348 88.6175ZM96.7315 89.1295H94.1075V98.2175C94.1075 101.866 92.2515 103.946 89.1795 103.946C86.4595 103.946 85.0835 102.442 85.0835 99.4335V89.1295H82.4595V99.8175C82.4595 103.818 84.7635 106.25 88.6675 106.25C91.0035 106.25 92.9235 105.418 94.1075 103.402V105.77H96.7315V89.1295ZM100.725 101.546C100.725 104.362 103.029 106.25 106.293 106.25C108.693 106.25 110.965 105.45 112.341 103.498L113.077 105.77H115.349L114.837 102.73V94.1215C114.837 90.5695 112.309 88.6175 108.149 88.6175C104.405 88.6175 101.397 90.7615 101.141 93.9295L103.541 94.8895C103.541 92.1375 105.589 90.7935 108.149 90.7935C110.293 90.7935 112.245 91.5295 112.245 93.5455C112.245 95.3375 111.509 95.5935 106.133 96.5535C102.901 97.1295 100.725 98.7295 100.725 101.546ZM103.541 101.418C103.541 99.5935 104.981 98.8895 106.869 98.5375C110.645 97.7695 111.701 97.6415 112.245 97.0975V99.0495C112.245 101.93 110.261 104.138 106.837 104.138C104.757 104.138 103.541 102.954 103.541 101.418ZM119.78 82.2495V105.77H122.404V82.2495H119.78ZM135.321 105.77H150.841V103.338H138.009V95.0175H149.849V92.5855H138.009V84.6815H150.777V82.2495H135.321V105.77ZM171.849 82.2495H169.225V91.7855C167.849 89.8655 165.673 88.6175 162.761 88.6175C157.641 88.6175 154.313 92.5215 154.313 97.4495C154.313 102.346 157.641 106.25 162.761 106.25C165.673 106.25 167.849 105.002 169.225 103.114V105.77H171.849V82.2495ZM157.001 97.4495C157.001 93.8975 159.241 91.0175 163.145 91.0175C166.953 91.0175 169.289 93.8975 169.289 97.4495C169.289 101.002 166.953 103.85 163.145 103.85C159.241 103.85 157.001 100.97 157.001 97.4495ZM176.838 89.1295V105.77H179.462V89.1295H176.838ZM176.55 85.4495H179.782V82.2495H176.55V85.4495ZM185.682 84.9695V89.1295H182.77V91.5295H185.682V101.418C185.682 104.906 187.474 106.186 190.738 106.186C191.218 106.186 192.274 106.09 192.754 105.898V103.562C192.306 103.658 191.57 103.754 191.154 103.754C189.33 103.754 188.306 103.466 188.306 101.098V91.5295H193.106V89.1295H188.306V82.9855L185.682 84.9695ZM196.807 89.1295V105.77H199.431V89.1295H196.807ZM196.519 85.4495H199.751V82.2495H196.519V85.4495ZM204.307 89.1295V105.77H206.931V96.7455C206.931 93.0655 208.851 91.0175 212.019 91.0175C214.803 91.0175 216.275 92.6495 216.275 95.7535V105.77H218.899V95.3695C218.899 91.1775 216.563 88.6495 212.499 88.6495C209.939 88.6495 208.115 89.6095 206.931 91.4975V89.1295H204.307ZM236.965 89.1295V91.6255C235.621 89.8015 233.509 88.6175 230.821 88.6175C225.733 88.6175 222.469 92.3935 222.469 97.0975C222.469 101.802 225.733 105.546 230.821 105.546C233.509 105.546 235.621 104.362 236.965 102.538V105.258C236.965 108.65 234.661 110.794 231.045 110.794C227.909 110.794 225.893 109.386 224.997 106.538L222.693 108.138C223.973 111.434 226.757 113.13 231.045 113.13C236.261 113.13 239.589 110.154 239.589 105.386V89.1295H236.965ZM225.157 97.0975C225.157 93.7375 227.365 91.0175 231.173 91.0175C234.885 91.0175 237.029 93.7055 237.029 97.0975C237.029 100.458 234.885 103.146 231.173 103.146C227.365 103.146 225.157 100.426 225.157 97.0975ZM258.273 81.7375C255.105 81.7375 253.121 83.9455 253.121 87.0815V89.1295H250.177V91.4655H253.121V105.77H255.745V91.4655H260.801V89.1295H255.745V87.1455C255.745 84.9695 256.897 84.1055 258.753 84.1055C259.329 84.1055 260.033 84.1695 260.545 84.3295V81.9935C259.873 81.8335 258.945 81.7375 258.273 81.7375ZM271.864 88.6175C266.904 88.6175 263.032 92.2015 263.032 97.4495C263.032 102.666 266.904 106.25 271.864 106.25C276.824 106.25 280.728 102.666 280.728 97.4495C280.728 92.2015 276.824 88.6175 271.864 88.6175ZM265.72 97.4495C265.72 93.5775 268.28 91.0495 271.864 91.0495C275.48 91.0495 278.04 93.5775 278.04 97.4495C278.04 101.29 275.48 103.818 271.864 103.818C268.344 103.818 265.72 101.29 265.72 97.4495ZM284.495 89.1295V105.77H287.119V97.7055C287.119 93.0975 289.327 91.4975 292.335 91.4975C292.783 91.4975 293.231 91.5615 293.647 91.6575V88.9375C293.263 88.8735 293.007 88.8415 292.623 88.8415C290.799 88.8415 288.399 89.5455 287.119 92.0095V89.1295H284.495ZM305.339 84.9695V89.1295H302.427V91.5295H305.339V101.418C305.339 104.906 307.131 106.186 310.395 106.186C310.875 106.186 311.931 106.09 312.411 105.898V103.562C311.963 103.658 311.227 103.754 310.811 103.754C308.987 103.754 307.963 103.466 307.963 101.098V91.5295H312.763V89.1295H307.963V82.9855L305.339 84.9695ZM324.815 88.6495C321.903 88.6495 320.239 89.8975 319.247 91.5615V82.2495H316.623V105.77H319.247V96.7455C319.247 93.0335 321.231 91.0175 324.303 91.0175C327.119 91.0175 328.591 92.6495 328.591 95.7535V105.77H331.215V95.3695C331.215 91.1775 328.879 88.6495 324.815 88.6495ZM342.973 88.6175C338.269 88.6175 334.813 92.4255 334.813 97.4495C334.813 102.666 338.205 106.25 343.229 106.25C346.205 106.25 349.277 105.034 350.749 102.218L348.733 100.522C347.741 102.826 345.917 103.914 343.261 103.914C340.221 103.914 337.853 102.026 337.533 98.3135H350.941C350.973 97.9295 351.005 97.5135 351.005 97.1615C351.005 92.0735 347.997 88.6175 342.973 88.6175ZM337.565 96.2015C338.013 92.7775 340.285 90.9535 342.973 90.9535C346.077 90.9535 348.157 92.9375 348.157 96.2015H337.565ZM362.915 82.2495V105.77H365.603V95.2415H378.019V105.77H380.707V82.2495H378.019V92.8095H365.603V82.2495H362.915ZM393.254 88.6175C388.55 88.6175 385.094 92.4255 385.094 97.4495C385.094 102.666 388.486 106.25 393.51 106.25C396.486 106.25 399.558 105.034 401.03 102.218L399.014 100.522C398.022 102.826 396.198 103.914 393.542 103.914C390.502 103.914 388.134 102.026 387.814 98.3135H401.222C401.254 97.9295 401.286 97.5135 401.286 97.1615C401.286 92.0735 398.278 88.6175 393.254 88.6175ZM387.846 96.2015C388.294 92.7775 390.566 90.9535 393.254 90.9535C396.358 90.9535 398.438 92.9375 398.438 96.2015H387.846ZM404.475 101.546C404.475 104.362 406.779 106.25 410.043 106.25C412.443 106.25 414.715 105.45 416.091 103.498L416.827 105.77H419.099L418.587 102.73V94.1215C418.587 90.5695 416.059 88.6175 411.899 88.6175C408.155 88.6175 405.147 90.7615 404.891 93.9295L407.291 94.8895C407.291 92.1375 409.339 90.7935 411.899 90.7935C414.043 90.7935 415.995 91.5295 415.995 93.5455C415.995 95.3375 415.259 95.5935 409.883 96.5535C406.651 97.1295 404.475 98.7295 404.475 101.546ZM407.291 101.418C407.291 99.5935 408.731 98.8895 410.619 98.5375C414.395 97.7695 415.451 97.6415 415.995 97.0975V99.0495C415.995 101.93 414.011 104.138 410.587 104.138C408.507 104.138 407.291 102.954 407.291 101.418ZM439.818 82.2495H437.194V91.7855C435.818 89.8655 433.642 88.6175 430.73 88.6175C425.61 88.6175 422.282 92.5215 422.282 97.4495C422.282 102.346 425.61 106.25 430.73 106.25C433.642 106.25 435.818 105.002 437.194 103.114V105.77H439.818V82.2495ZM424.97 97.4495C424.97 93.8975 427.21 91.0175 431.114 91.0175C434.922 91.0175 437.258 93.8975 437.258 97.4495C437.258 101.002 434.922 103.85 431.114 103.85C427.21 103.85 424.97 100.97 424.97 97.4495ZM444.967 82.2495V105.77H447.591V82.2495H444.967ZM459.692 88.6175C454.988 88.6175 451.532 92.4255 451.532 97.4495C451.532 102.666 454.924 106.25 459.948 106.25C462.924 106.25 465.996 105.034 467.468 102.218L465.452 100.522C464.46 102.826 462.636 103.914 459.98 103.914C456.94 103.914 454.572 102.026 454.252 98.3135H467.66C467.692 97.9295 467.724 97.5135 467.724 97.1615C467.724 92.0735 464.716 88.6175 459.692 88.6175ZM454.284 96.2015C454.732 92.7775 457.004 90.9535 459.692 90.9535C462.796 90.9535 464.876 92.9375 464.876 96.2015H454.284ZM477.729 88.6175C474.177 88.6175 471.169 90.7295 471.169 93.6415C471.169 100.298 481.953 97.3215 481.953 101.418C481.953 103.242 480.257 104.042 477.985 104.042C475.137 104.042 473.312 102.538 473.217 99.9775L470.593 101.066C471.073 104.01 473.665 106.25 477.985 106.25C482.177 106.25 484.801 104.362 484.801 101.226C484.801 94.7615 473.889 97.6095 473.889 93.4815C473.889 91.9775 475.297 90.8255 477.729 90.8255C480.385 90.8255 481.921 92.2335 482.081 94.4415L484.577 93.5135C484.225 90.6015 481.537 88.6175 477.729 88.6175ZM494.697 88.6175C491.145 88.6175 488.137 90.7295 488.137 93.6415C488.137 100.298 498.921 97.3215 498.921 101.418C498.921 103.242 497.225 104.042 494.953 104.042C492.105 104.042 490.281 102.538 490.185 99.9775L487.561 101.066C488.041 104.01 490.633 106.25 494.953 106.25C499.145 106.25 501.769 104.362 501.769 101.226C501.769 94.7615 490.857 97.6095 490.857 93.4815C490.857 91.9775 492.265 90.8255 494.697 90.8255C497.353 90.8255 498.889 92.2335 499.049 94.4415L501.545 93.5135C501.193 90.6015 498.505 88.6175 494.697 88.6175ZM521.347 81.7375C516.899 81.7375 512.803 84.1695 512.803 88.4255C512.803 97.5775 527.587 92.3615 527.587 99.4655C527.587 102.218 525.059 103.914 521.507 103.914C517.187 103.914 514.851 101.226 514.851 97.2575L512.291 98.6015C512.739 103.274 516.291 106.25 521.507 106.25C526.659 106.25 530.339 103.658 530.339 99.2735C530.339 89.9615 515.555 94.6975 515.555 88.2655C515.555 85.6095 517.955 84.0735 521.347 84.0735C525.187 84.0735 527.459 86.3775 527.459 89.5135L529.987 88.4255C529.795 84.8735 526.499 81.7375 521.347 81.7375ZM535.87 84.9695V89.1295H532.958V91.5295H535.87V101.418C535.87 104.906 537.662 106.186 540.926 106.186C541.406 106.186 542.462 106.09 542.942 105.898V103.562C542.494 103.658 541.758 103.754 541.342 103.754C539.518 103.754 538.494 103.466 538.494 101.098V91.5295H543.294V89.1295H538.494V82.9855L535.87 84.9695ZM546.163 101.546C546.163 104.362 548.467 106.25 551.731 106.25C554.131 106.25 556.403 105.45 557.779 103.498L558.515 105.77H560.787L560.275 102.73V94.1215C560.275 90.5695 557.747 88.6175 553.587 88.6175C549.843 88.6175 546.835 90.7615 546.579 93.9295L548.979 94.8895C548.979 92.1375 551.027 90.7935 553.587 90.7935C555.731 90.7935 557.683 91.5295 557.683 93.5455C557.683 95.3375 556.947 95.5935 551.571 96.5535C548.339 97.1295 546.163 98.7295 546.163 101.546ZM548.979 101.418C548.979 99.5935 550.419 98.8895 552.307 98.5375C556.083 97.7695 557.139 97.6415 557.683 97.0975V99.0495C557.683 101.93 555.699 104.138 552.275 104.138C550.195 104.138 548.979 102.954 548.979 101.418ZM572.769 88.6175C567.713 88.6175 563.969 92.2655 563.969 97.4495C563.969 102.762 567.585 106.25 572.769 106.25C576.065 106.25 579.009 104.426 580.129 101.866L577.889 100.394C577.313 102.346 575.201 103.818 572.769 103.818C568.961 103.818 566.657 101.29 566.657 97.4495C566.657 93.6095 569.089 91.0495 572.769 91.0495C575.009 91.0495 577.153 92.2335 577.793 94.4735L580.097 93.0335C579.041 90.4415 576.129 88.6175 572.769 88.6175ZM583.936 82.2495V105.77H586.56V100.106L589.216 97.5455L595.36 105.77H598.528L591.04 95.7855L597.92 89.1295H594.432L586.56 96.7455V82.2495H583.936Z" fill="white"/>
<path d="M36.916 142.77L34.414 130.962H35.962L37.204 137.388C37.312 138.024 37.426 138.66 37.546 139.296C37.666 139.932 37.78 140.568 37.888 141.204H37.96C38.092 140.568 38.23 139.932 38.374 139.296C38.518 138.648 38.656 138.012 38.788 137.388L40.426 130.962H41.794L43.432 137.388C43.576 138.012 43.72 138.648 43.864 139.296C44.008 139.932 44.152 140.568 44.296 141.204H44.368C44.476 140.568 44.584 139.932 44.692 139.296C44.8 138.648 44.914 138.012 45.034 137.388L46.276 130.962H47.716L45.268 142.77H43.468L41.686 135.66C41.578 135.204 41.476 134.76 41.38 134.328C41.296 133.884 41.206 133.434 41.11 132.978H41.038C40.954 133.434 40.858 133.884 40.75 134.328C40.642 134.76 40.54 135.204 40.444 135.66L38.698 142.77H36.916ZM53.0284 142.986C52.3204 142.986 51.6544 142.806 51.0304 142.446C50.4184 142.086 49.9204 141.564 49.5364 140.88C49.1644 140.196 48.9784 139.374 48.9784 138.414C48.9784 137.43 49.1644 136.596 49.5364 135.912C49.9204 135.228 50.4184 134.706 51.0304 134.346C51.6544 133.986 52.3204 133.806 53.0284 133.806C53.7484 133.806 54.4144 133.986 55.0264 134.346C55.6384 134.706 56.1304 135.228 56.5024 135.912C56.8864 136.596 57.0784 137.43 57.0784 138.414C57.0784 139.374 56.8864 140.196 56.5024 140.88C56.1304 141.564 55.6384 142.086 55.0264 142.446C54.4144 142.806 53.7484 142.986 53.0284 142.986ZM53.0284 141.762C53.7844 141.762 54.3904 141.456 54.8464 140.844C55.3144 140.22 55.5484 139.41 55.5484 138.414C55.5484 137.406 55.3144 136.59 54.8464 135.966C54.3904 135.342 53.7844 135.03 53.0284 135.03C52.2844 135.03 51.6784 135.342 51.2104 135.966C50.7424 136.59 50.5084 137.406 50.5084 138.414C50.5084 139.41 50.7424 140.22 51.2104 140.844C51.6784 141.456 52.2844 141.762 53.0284 141.762ZM59.3823 142.77V134.022H60.6063L60.7323 135.606H60.7863C61.0863 135.054 61.4523 134.616 61.8843 134.292C62.3163 133.968 62.7783 133.806 63.2703 133.806C63.6183 133.806 63.9303 133.866 64.2063 133.986L63.9183 135.282C63.7743 135.234 63.6423 135.198 63.5223 135.174C63.4023 135.15 63.2523 135.138 63.0723 135.138C62.7003 135.138 62.3103 135.288 61.9023 135.588C61.5063 135.888 61.1583 136.41 60.8583 137.154V142.77H59.3823ZM65.6225 142.77V129.954H67.0805V138.63H67.1345L70.8605 134.022H72.4985L69.5645 137.532L72.8945 142.77H71.2745L68.7185 138.558L67.0805 140.466V142.77H65.6225ZM76.8206 142.986C76.1966 142.986 75.6026 142.872 75.0386 142.644C74.4746 142.404 73.9826 142.116 73.5626 141.78L74.3006 140.79C74.6846 141.09 75.0806 141.342 75.4886 141.546C75.8966 141.738 76.3586 141.834 76.8746 141.834C77.4506 141.834 77.8826 141.702 78.1706 141.438C78.4586 141.162 78.6026 140.838 78.6026 140.466C78.6026 140.166 78.5006 139.914 78.2966 139.71C78.1046 139.506 77.8526 139.338 77.5406 139.206C77.2406 139.062 76.9286 138.93 76.6046 138.81C76.1966 138.654 75.7946 138.48 75.3986 138.288C75.0026 138.084 74.6786 137.826 74.4266 137.514C74.1746 137.19 74.0486 136.782 74.0486 136.29C74.0486 135.582 74.3126 134.994 74.8406 134.526C75.3806 134.046 76.1246 133.806 77.0726 133.806C77.6126 133.806 78.1166 133.902 78.5846 134.094C79.0526 134.286 79.4546 134.52 79.7906 134.796L79.0706 135.732C78.7706 135.504 78.4586 135.318 78.1346 135.174C77.8106 135.03 77.4566 134.958 77.0726 134.958C76.5206 134.958 76.1126 135.084 75.8486 135.336C75.5966 135.588 75.4706 135.882 75.4706 136.218C75.4706 136.494 75.5606 136.722 75.7406 136.902C75.9206 137.07 76.1546 137.22 76.4426 137.352C76.7306 137.472 77.0366 137.598 77.3606 137.73C77.7806 137.886 78.1946 138.066 78.6026 138.27C79.0106 138.462 79.3466 138.726 79.6106 139.062C79.8866 139.386 80.0246 139.824 80.0246 140.376C80.0246 140.844 79.8986 141.276 79.6466 141.672C79.4066 142.068 79.0466 142.386 78.5666 142.626C78.0986 142.866 77.5166 142.986 76.8206 142.986ZM87.0651 142.77L84.6351 134.022H86.1471L87.4431 139.08C87.5391 139.488 87.6291 139.896 87.7131 140.304C87.7971 140.7 87.8811 141.102 87.9651 141.51H88.0371C88.1331 141.102 88.2291 140.7 88.3251 140.304C88.4211 139.896 88.5231 139.488 88.6311 139.08L89.9811 134.022H91.4211L92.7891 139.08C92.8971 139.488 92.9991 139.896 93.0951 140.304C93.2031 140.7 93.3051 141.102 93.4011 141.51H93.4731C93.5691 141.102 93.6591 140.7 93.7431 140.304C93.8391 139.896 93.9291 139.488 94.0131 139.08L95.2911 134.022H96.6951L94.3551 142.77H92.5551L91.2951 138.072C91.1871 137.652 91.0851 137.238 90.9891 136.83C90.9051 136.422 90.8091 135.996 90.7011 135.552H90.6291C90.5331 135.996 90.4371 136.428 90.3411 136.848C90.2451 137.256 90.1371 137.67 90.0171 138.09L88.7931 142.77H87.0651ZM98.599 142.77V134.022H100.075V142.77H98.599ZM99.355 132.222C99.067 132.222 98.827 132.138 98.635 131.97C98.455 131.79 98.365 131.55 98.365 131.25C98.365 130.962 98.455 130.728 98.635 130.548C98.827 130.368 99.067 130.278 99.355 130.278C99.643 130.278 99.877 130.368 100.057 130.548C100.249 130.728 100.345 130.962 100.345 131.25C100.345 131.55 100.249 131.79 100.057 131.97C99.877 132.138 99.643 132.222 99.355 132.222ZM105.783 142.986C104.847 142.986 104.193 142.716 103.821 142.176C103.461 141.636 103.281 140.934 103.281 140.07V135.228H101.985V134.112L103.353 134.022L103.533 131.574H104.775V134.022H107.133V135.228H104.775V140.088C104.775 140.628 104.871 141.048 105.063 141.348C105.267 141.636 105.621 141.78 106.125 141.78C106.281 141.78 106.449 141.756 106.629 141.708C106.809 141.648 106.971 141.594 107.115 141.546L107.403 142.662C107.163 142.746 106.899 142.818 106.611 142.878C106.335 142.95 106.059 142.986 105.783 142.986ZM109.111 142.77V129.954H110.587V133.446L110.533 135.246C110.953 134.85 111.391 134.514 111.847 134.238C112.315 133.95 112.849 133.806 113.449 133.806C114.373 133.806 115.045 134.1 115.465 134.688C115.897 135.264 116.113 136.11 116.113 137.226V142.77H114.637V137.424C114.637 136.608 114.505 136.014 114.241 135.642C113.977 135.27 113.557 135.084 112.981 135.084C112.537 135.084 112.135 135.198 111.775 135.426C111.427 135.654 111.031 135.99 110.587 136.434V142.77H109.111ZM122.649 146.532C122.457 146.532 122.271 146.514 122.091 146.478C121.923 146.442 121.767 146.4 121.623 146.352L121.911 145.182C122.007 145.206 122.115 145.23 122.235 145.254C122.355 145.29 122.469 145.308 122.577 145.308C123.069 145.308 123.477 145.128 123.801 144.768C124.125 144.42 124.377 143.976 124.557 143.436L124.755 142.788L121.245 134.022H122.775L124.557 138.864C124.689 139.236 124.827 139.638 124.971 140.07C125.127 140.502 125.271 140.922 125.403 141.33H125.475C125.607 140.934 125.733 140.52 125.853 140.088C125.973 139.656 126.093 139.248 126.213 138.864L127.779 134.022H129.219L125.925 143.49C125.721 144.066 125.475 144.582 125.187 145.038C124.911 145.494 124.563 145.854 124.143 146.118C123.735 146.394 123.237 146.532 122.649 146.532ZM134.239 142.986C133.531 142.986 132.865 142.806 132.241 142.446C131.629 142.086 131.131 141.564 130.747 140.88C130.375 140.196 130.189 139.374 130.189 138.414C130.189 137.43 130.375 136.596 130.747 135.912C131.131 135.228 131.629 134.706 132.241 134.346C132.865 133.986 133.531 133.806 134.239 133.806C134.959 133.806 135.625 133.986 136.237 134.346C136.849 134.706 137.341 135.228 137.713 135.912C138.097 136.596 138.289 137.43 138.289 138.414C138.289 139.374 138.097 140.196 137.713 140.88C137.341 141.564 136.849 142.086 136.237 142.446C135.625 142.806 134.959 142.986 134.239 142.986ZM134.239 141.762C134.995 141.762 135.601 141.456 136.057 140.844C136.525 140.22 136.759 139.41 136.759 138.414C136.759 137.406 136.525 136.59 136.057 135.966C135.601 135.342 134.995 135.03 134.239 135.03C133.495 135.03 132.889 135.342 132.421 135.966C131.953 136.59 131.719 137.406 131.719 138.414C131.719 139.41 131.953 140.22 132.421 140.844C132.889 141.456 133.495 141.762 134.239 141.762ZM143.149 142.986C142.225 142.986 141.547 142.698 141.115 142.122C140.683 141.534 140.467 140.682 140.467 139.566V134.022H141.961V139.368C141.961 140.184 142.087 140.778 142.339 141.15C142.603 141.522 143.023 141.708 143.599 141.708C144.055 141.708 144.457 141.594 144.805 141.366C145.165 141.126 145.549 140.748 145.957 140.232V134.022H147.433V142.77H146.209L146.083 141.402H146.029C145.621 141.882 145.189 142.266 144.733 142.554C144.277 142.842 143.749 142.986 143.149 142.986ZM150.384 142.77V134.022H151.608L151.734 135.606H151.788C152.088 135.054 152.454 134.616 152.886 134.292C153.318 133.968 153.78 133.806 154.272 133.806C154.62 133.806 154.932 133.866 155.208 133.986L154.92 135.282C154.776 135.234 154.644 135.198 154.524 135.174C154.404 135.15 154.254 135.138 154.074 135.138C153.702 135.138 153.312 135.288 152.904 135.588C152.508 135.888 152.16 136.41 151.86 137.154V142.77H150.384ZM162.514 142.986C161.89 142.986 161.296 142.872 160.732 142.644C160.168 142.404 159.676 142.116 159.256 141.78L159.994 140.79C160.378 141.09 160.774 141.342 161.182 141.546C161.59 141.738 162.052 141.834 162.568 141.834C163.144 141.834 163.576 141.702 163.864 141.438C164.152 141.162 164.296 140.838 164.296 140.466C164.296 140.166 164.194 139.914 163.99 139.71C163.798 139.506 163.546 139.338 163.234 139.206C162.934 139.062 162.622 138.93 162.298 138.81C161.89 138.654 161.488 138.48 161.092 138.288C160.696 138.084 160.372 137.826 160.12 137.514C159.868 137.19 159.742 136.782 159.742 136.29C159.742 135.582 160.006 134.994 160.534 134.526C161.074 134.046 161.818 133.806 162.766 133.806C163.306 133.806 163.81 133.902 164.278 134.094C164.746 134.286 165.148 134.52 165.484 134.796L164.764 135.732C164.464 135.504 164.152 135.318 163.828 135.174C163.504 135.03 163.15 134.958 162.766 134.958C162.214 134.958 161.806 135.084 161.542 135.336C161.29 135.588 161.164 135.882 161.164 136.218C161.164 136.494 161.254 136.722 161.434 136.902C161.614 137.07 161.848 137.22 162.136 137.352C162.424 137.472 162.73 137.598 163.054 137.73C163.474 137.886 163.888 138.066 164.296 138.27C164.704 138.462 165.04 138.726 165.304 139.062C165.58 139.386 165.718 139.824 165.718 140.376C165.718 140.844 165.592 141.276 165.34 141.672C165.1 142.068 164.74 142.386 164.26 142.626C163.792 142.866 163.21 142.986 162.514 142.986ZM170.171 142.986C169.235 142.986 168.581 142.716 168.209 142.176C167.849 141.636 167.669 140.934 167.669 140.07V135.228H166.373V134.112L167.741 134.022L167.921 131.574H169.163V134.022H171.521V135.228H169.163V140.088C169.163 140.628 169.259 141.048 169.451 141.348C169.655 141.636 170.009 141.78 170.513 141.78C170.669 141.78 170.837 141.756 171.017 141.708C171.197 141.648 171.359 141.594 171.503 141.546L171.791 142.662C171.551 142.746 171.287 142.818 170.999 142.878C170.723 142.95 170.447 142.986 170.171 142.986ZM175.129 142.986C174.397 142.986 173.785 142.77 173.293 142.338C172.813 141.894 172.573 141.282 172.573 140.502C172.573 139.542 172.999 138.81 173.851 138.306C174.715 137.79 176.077 137.43 177.937 137.226C177.937 136.854 177.883 136.5 177.775 136.164C177.679 135.828 177.499 135.558 177.235 135.354C176.983 135.138 176.617 135.03 176.137 135.03C175.633 135.03 175.159 135.126 174.715 135.318C174.271 135.51 173.875 135.726 173.527 135.966L172.951 134.94C173.359 134.676 173.857 134.424 174.445 134.184C175.045 133.932 175.693 133.806 176.389 133.806C177.457 133.806 178.231 134.136 178.711 134.796C179.191 135.444 179.431 136.314 179.431 137.406V142.77H178.207L178.081 141.726H178.027C177.619 142.062 177.169 142.356 176.677 142.608C176.197 142.86 175.681 142.986 175.129 142.986ZM175.561 141.798C175.981 141.798 176.377 141.696 176.749 141.492C177.121 141.288 177.517 141 177.937 140.628V138.198C176.485 138.378 175.465 138.648 174.877 139.008C174.301 139.368 174.013 139.83 174.013 140.394C174.013 140.886 174.163 141.246 174.463 141.474C174.763 141.69 175.129 141.798 175.561 141.798ZM185.639 142.986C184.871 142.986 184.175 142.806 183.551 142.446C182.927 142.086 182.435 141.564 182.075 140.88C181.715 140.196 181.535 139.374 181.535 138.414C181.535 137.43 181.727 136.596 182.111 135.912C182.507 135.228 183.023 134.706 183.659 134.346C184.307 133.986 185.003 133.806 185.747 133.806C186.323 133.806 186.815 133.908 187.223 134.112C187.643 134.316 188.003 134.556 188.303 134.832L187.547 135.804C187.295 135.576 187.025 135.39 186.737 135.246C186.461 135.102 186.149 135.03 185.801 135.03C185.273 135.03 184.799 135.174 184.379 135.462C183.971 135.738 183.647 136.134 183.407 136.65C183.179 137.154 183.065 137.742 183.065 138.414C183.065 139.41 183.311 140.22 183.803 140.844C184.307 141.456 184.961 141.762 185.765 141.762C186.173 141.762 186.551 141.678 186.899 141.51C187.247 141.33 187.553 141.12 187.817 140.88L188.465 141.87C188.069 142.218 187.631 142.494 187.151 142.698C186.671 142.89 186.167 142.986 185.639 142.986ZM190.392 142.77V129.954H191.85V138.63H191.904L195.63 134.022H197.268L194.334 137.532L197.664 142.77H196.044L193.488 138.558L191.85 140.466V142.77H190.392ZM200.307 142.986C200.007 142.986 199.749 142.884 199.533 142.68C199.329 142.464 199.227 142.194 199.227 141.87C199.227 141.522 199.329 141.246 199.533 141.042C199.749 140.826 200.007 140.718 200.307 140.718C200.595 140.718 200.841 140.826 201.045 141.042C201.261 141.246 201.369 141.522 201.369 141.87C201.369 142.194 201.261 142.464 201.045 142.68C200.841 142.884 200.595 142.986 200.307 142.986ZM207.763 142.77V130.962H209.311L213.577 138.378L214.855 140.826H214.927C214.891 140.226 214.849 139.608 214.801 138.972C214.765 138.324 214.747 137.688 214.747 137.064V130.962H216.169V142.77H214.621L210.337 135.336L209.059 132.906H208.987C209.035 133.494 209.077 134.1 209.113 134.724C209.161 135.348 209.185 135.972 209.185 136.596V142.77H207.763ZM222.675 142.986C221.967 142.986 221.301 142.806 220.677 142.446C220.065 142.086 219.567 141.564 219.183 140.88C218.811 140.196 218.625 139.374 218.625 138.414C218.625 137.43 218.811 136.596 219.183 135.912C219.567 135.228 220.065 134.706 220.677 134.346C221.301 133.986 221.967 133.806 222.675 133.806C223.395 133.806 224.061 133.986 224.673 134.346C225.285 134.706 225.777 135.228 226.149 135.912C226.533 136.596 226.725 137.43 226.725 138.414C226.725 139.374 226.533 140.196 226.149 140.88C225.777 141.564 225.285 142.086 224.673 142.446C224.061 142.806 223.395 142.986 222.675 142.986ZM222.675 141.762C223.431 141.762 224.037 141.456 224.493 140.844C224.961 140.22 225.195 139.41 225.195 138.414C225.195 137.406 224.961 136.59 224.493 135.966C224.037 135.342 223.431 135.03 222.675 135.03C221.931 135.03 221.325 135.342 220.857 135.966C220.389 136.59 220.155 137.406 220.155 138.414C220.155 139.41 220.389 140.22 220.857 140.844C221.325 141.456 221.931 141.762 222.675 141.762ZM234.198 142.986C233.646 142.986 233.244 142.818 232.992 142.482C232.752 142.134 232.632 141.642 232.632 141.006V129.954H234.108V141.114C234.108 141.342 234.15 141.51 234.234 141.618C234.318 141.714 234.414 141.762 234.522 141.762C234.57 141.762 234.612 141.762 234.648 141.762C234.696 141.75 234.762 141.738 234.846 141.726L235.044 142.842C234.948 142.89 234.834 142.926 234.702 142.95C234.57 142.974 234.402 142.986 234.198 142.986ZM240.622 142.986C239.914 142.986 239.248 142.806 238.624 142.446C238.012 142.086 237.514 141.564 237.13 140.88C236.758 140.196 236.572 139.374 236.572 138.414C236.572 137.43 236.758 136.596 237.13 135.912C237.514 135.228 238.012 134.706 238.624 134.346C239.248 133.986 239.914 133.806 240.622 133.806C241.342 133.806 242.008 133.986 242.62 134.346C243.232 134.706 243.724 135.228 244.096 135.912C244.48 136.596 244.672 137.43 244.672 138.414C244.672 139.374 244.48 140.196 244.096 140.88C243.724 141.564 243.232 142.086 242.62 142.446C242.008 142.806 241.342 142.986 240.622 142.986ZM240.622 141.762C241.378 141.762 241.984 141.456 242.44 140.844C242.908 140.22 243.142 139.41 243.142 138.414C243.142 137.406 242.908 136.59 242.44 135.966C241.984 135.342 241.378 135.03 240.622 135.03C239.878 135.03 239.272 135.342 238.804 135.966C238.336 136.59 238.102 137.406 238.102 138.414C238.102 139.41 238.336 140.22 238.804 140.844C239.272 141.456 239.878 141.762 240.622 141.762ZM250.432 142.986C249.664 142.986 248.968 142.806 248.344 142.446C247.72 142.086 247.228 141.564 246.868 140.88C246.508 140.196 246.328 139.374 246.328 138.414C246.328 137.43 246.52 136.596 246.904 135.912C247.3 135.228 247.816 134.706 248.452 134.346C249.1 133.986 249.796 133.806 250.54 133.806C251.116 133.806 251.608 133.908 252.016 134.112C252.436 134.316 252.796 134.556 253.096 134.832L252.34 135.804C252.088 135.576 251.818 135.39 251.53 135.246C251.254 135.102 250.942 135.03 250.594 135.03C250.066 135.03 249.592 135.174 249.172 135.462C248.764 135.738 248.44 136.134 248.2 136.65C247.972 137.154 247.858 137.742 247.858 138.414C247.858 139.41 248.104 140.22 248.596 140.844C249.1 141.456 249.754 141.762 250.558 141.762C250.966 141.762 251.344 141.678 251.692 141.51C252.04 141.33 252.346 141.12 252.61 140.88L253.258 141.87C252.862 142.218 252.424 142.494 251.944 142.698C251.464 142.89 250.96 142.986 250.432 142.986ZM255.185 142.77V129.954H256.643V138.63H256.697L260.423 134.022H262.061L259.127 137.532L262.457 142.77H260.837L258.281 138.558L256.643 140.466V142.77H255.185ZM262.568 138.828V137.694H266.708V138.828H262.568ZM268.896 142.77V134.022H270.372V142.77H268.896ZM269.652 132.222C269.364 132.222 269.124 132.138 268.932 131.97C268.752 131.79 268.662 131.55 268.662 131.25C268.662 130.962 268.752 130.728 268.932 130.548C269.124 130.368 269.364 130.278 269.652 130.278C269.94 130.278 270.174 130.368 270.354 130.548C270.546 130.728 270.642 130.962 270.642 131.25C270.642 131.55 270.546 131.79 270.354 131.97C270.174 132.138 269.94 132.222 269.652 132.222ZM273.326 142.77V134.022H274.55L274.676 135.282H274.73C275.15 134.862 275.594 134.514 276.062 134.238C276.53 133.95 277.064 133.806 277.664 133.806C278.588 133.806 279.26 134.1 279.68 134.688C280.112 135.264 280.328 136.11 280.328 137.226V142.77H278.852V137.424C278.852 136.608 278.72 136.014 278.456 135.642C278.192 135.27 277.772 135.084 277.196 135.084C276.752 135.084 276.35 135.198 275.99 135.426C275.642 135.654 275.246 135.99 274.802 136.434V142.77H273.326ZM282.899 145.83L282.539 144.966C283.055 144.738 283.457 144.432 283.745 144.048C284.033 143.676 284.171 143.25 284.159 142.77C284.135 142.782 284.105 142.788 284.069 142.788C284.033 142.788 284.003 142.788 283.979 142.788C283.691 142.788 283.439 142.704 283.223 142.536C283.019 142.356 282.917 142.098 282.917 141.762C282.917 141.438 283.025 141.186 283.241 141.006C283.457 140.814 283.715 140.718 284.015 140.718C284.399 140.718 284.699 140.874 284.915 141.186C285.143 141.498 285.257 141.924 285.257 142.464C285.257 143.232 285.047 143.904 284.627 144.48C284.207 145.068 283.631 145.518 282.899 145.83ZM291.255 142.77V134.022H292.479L292.605 135.282H292.659C293.079 134.862 293.523 134.514 293.991 134.238C294.459 133.95 294.993 133.806 295.593 133.806C296.517 133.806 297.189 134.1 297.609 134.688C298.041 135.264 298.257 136.11 298.257 137.226V142.77H296.781V137.424C296.781 136.608 296.649 136.014 296.385 135.642C296.121 135.27 295.701 135.084 295.125 135.084C294.681 135.084 294.279 135.198 293.919 135.426C293.571 135.654 293.175 135.99 292.731 136.434V142.77H291.255ZM304.501 142.986C303.793 142.986 303.127 142.806 302.503 142.446C301.891 142.086 301.393 141.564 301.009 140.88C300.637 140.196 300.451 139.374 300.451 138.414C300.451 137.43 300.637 136.596 301.009 135.912C301.393 135.228 301.891 134.706 302.503 134.346C303.127 133.986 303.793 133.806 304.501 133.806C305.221 133.806 305.887 133.986 306.499 134.346C307.111 134.706 307.603 135.228 307.975 135.912C308.359 136.596 308.551 137.43 308.551 138.414C308.551 139.374 308.359 140.196 307.975 140.88C307.603 141.564 307.111 142.086 306.499 142.446C305.887 142.806 305.221 142.986 304.501 142.986ZM304.501 141.762C305.257 141.762 305.863 141.456 306.319 140.844C306.787 140.22 307.021 139.41 307.021 138.414C307.021 137.406 306.787 136.59 306.319 135.966C305.863 135.342 305.257 135.03 304.501 135.03C303.757 135.03 303.151 135.342 302.683 135.966C302.215 136.59 301.981 137.406 301.981 138.414C301.981 139.41 302.215 140.22 302.683 140.844C303.151 141.456 303.757 141.762 304.501 141.762ZM314.458 146.46V134.022H315.682L315.808 135.03H315.862C316.258 134.694 316.69 134.406 317.158 134.166C317.638 133.926 318.136 133.806 318.652 133.806C319.78 133.806 320.638 134.214 321.226 135.03C321.814 135.834 322.108 136.914 322.108 138.27C322.108 139.254 321.928 140.1 321.568 140.808C321.22 141.516 320.758 142.056 320.182 142.428C319.618 142.8 319 142.986 318.328 142.986C317.92 142.986 317.512 142.896 317.104 142.716C316.708 142.536 316.306 142.29 315.898 141.978L315.934 143.508V146.46H314.458ZM318.076 141.744C318.796 141.744 319.39 141.438 319.858 140.826C320.338 140.202 320.578 139.35 320.578 138.27C320.578 137.31 320.398 136.536 320.038 135.948C319.69 135.348 319.102 135.048 318.274 135.048C317.902 135.048 317.524 135.15 317.14 135.354C316.768 135.558 316.366 135.852 315.934 136.236V140.826C316.33 141.162 316.714 141.402 317.086 141.546C317.458 141.678 317.788 141.744 318.076 141.744ZM324.443 142.77V134.022H325.667L325.793 135.606H325.847C326.147 135.054 326.513 134.616 326.945 134.292C327.377 133.968 327.839 133.806 328.331 133.806C328.679 133.806 328.991 133.866 329.267 133.986L328.979 135.282C328.835 135.234 328.703 135.198 328.583 135.174C328.463 135.15 328.313 135.138 328.133 135.138C327.761 135.138 327.371 135.288 326.963 135.588C326.567 135.888 326.219 136.41 325.919 137.154V142.77H324.443ZM333.909 142.986C333.201 142.986 332.535 142.806 331.911 142.446C331.299 142.086 330.801 141.564 330.417 140.88C330.045 140.196 329.859 139.374 329.859 138.414C329.859 137.43 330.045 136.596 330.417 135.912C330.801 135.228 331.299 134.706 331.911 134.346C332.535 133.986 333.201 133.806 333.909 133.806C334.629 133.806 335.295 133.986 335.907 134.346C336.519 134.706 337.011 135.228 337.383 135.912C337.767 136.596 337.959 137.43 337.959 138.414C337.959 139.374 337.767 140.196 337.383 140.88C337.011 141.564 336.519 142.086 335.907 142.446C335.295 142.806 334.629 142.986 333.909 142.986ZM333.909 141.762C334.665 141.762 335.271 141.456 335.727 140.844C336.195 140.22 336.429 139.41 336.429 138.414C336.429 137.406 336.195 136.59 335.727 135.966C335.271 135.342 334.665 135.03 333.909 135.03C333.165 135.03 332.559 135.342 332.091 135.966C331.623 136.59 331.389 137.406 331.389 138.414C331.389 139.41 331.623 140.22 332.091 140.844C332.559 141.456 333.165 141.762 333.909 141.762ZM340.263 146.46V134.022H341.487L341.613 135.03H341.667C342.063 134.694 342.495 134.406 342.963 134.166C343.443 133.926 343.941 133.806 344.457 133.806C345.585 133.806 346.443 134.214 347.031 135.03C347.619 135.834 347.913 136.914 347.913 138.27C347.913 139.254 347.733 140.1 347.373 140.808C347.025 141.516 346.563 142.056 345.987 142.428C345.423 142.8 344.805 142.986 344.133 142.986C343.725 142.986 343.317 142.896 342.909 142.716C342.513 142.536 342.111 142.29 341.703 141.978L341.739 143.508V146.46H340.263ZM343.881 141.744C344.601 141.744 345.195 141.438 345.663 140.826C346.143 140.202 346.383 139.35 346.383 138.27C346.383 137.31 346.203 136.536 345.843 135.948C345.495 135.348 344.907 135.048 344.079 135.048C343.707 135.048 343.329 135.15 342.945 135.354C342.573 135.558 342.171 135.852 341.739 136.236V140.826C342.135 141.162 342.519 141.402 342.891 141.546C343.263 141.678 343.593 141.744 343.881 141.744ZM350.247 142.77V134.022H351.471L351.597 135.606H351.651C351.951 135.054 352.317 134.616 352.749 134.292C353.181 133.968 353.643 133.806 354.135 133.806C354.483 133.806 354.795 133.866 355.071 133.986L354.783 135.282C354.639 135.234 354.507 135.198 354.387 135.174C354.267 135.15 354.117 135.138 353.937 135.138C353.565 135.138 353.175 135.288 352.767 135.588C352.371 135.888 352.023 136.41 351.723 137.154V142.77H350.247ZM356.488 142.77V134.022H357.964V142.77H356.488ZM357.244 132.222C356.956 132.222 356.716 132.138 356.524 131.97C356.344 131.79 356.254 131.55 356.254 131.25C356.254 130.962 356.344 130.728 356.524 130.548C356.716 130.368 356.956 130.278 357.244 130.278C357.532 130.278 357.766 130.368 357.946 130.548C358.138 130.728 358.234 130.962 358.234 131.25C358.234 131.55 358.138 131.79 357.946 131.97C357.766 132.138 357.532 132.222 357.244 132.222ZM364.463 142.986C363.683 142.986 362.975 142.806 362.339 142.446C361.703 142.074 361.199 141.546 360.827 140.862C360.455 140.178 360.269 139.362 360.269 138.414C360.269 137.454 360.455 136.632 360.827 135.948C361.211 135.264 361.703 134.736 362.303 134.364C362.903 133.992 363.533 133.806 364.193 133.806C365.309 133.806 366.167 134.178 366.767 134.922C367.379 135.666 367.685 136.662 367.685 137.91C367.685 138.066 367.679 138.222 367.667 138.378C367.667 138.522 367.655 138.648 367.631 138.756H361.727C361.787 139.68 362.075 140.418 362.591 140.97C363.119 141.522 363.803 141.798 364.643 141.798C365.063 141.798 365.447 141.738 365.795 141.618C366.155 141.486 366.497 141.318 366.821 141.114L367.343 142.086C366.971 142.326 366.545 142.536 366.065 142.716C365.597 142.896 365.063 142.986 364.463 142.986ZM361.709 137.694H366.389C366.389 136.806 366.197 136.134 365.813 135.678C365.441 135.21 364.913 134.976 364.229 134.976C363.617 134.976 363.065 135.216 362.573 135.696C362.093 136.164 361.805 136.83 361.709 137.694ZM372.425 142.986C371.489 142.986 370.835 142.716 370.463 142.176C370.103 141.636 369.923 140.934 369.923 140.07V135.228H368.627V134.112L369.995 134.022L370.175 131.574H371.417V134.022H373.775V135.228H371.417V140.088C371.417 140.628 371.513 141.048 371.705 141.348C371.909 141.636 372.263 141.78 372.767 141.78C372.923 141.78 373.091 141.756 373.271 141.708C373.451 141.648 373.613 141.594 373.757 141.546L374.045 142.662C373.805 142.746 373.541 142.818 373.253 142.878C372.977 142.95 372.701 142.986 372.425 142.986ZM377.383 142.986C376.651 142.986 376.039 142.77 375.547 142.338C375.067 141.894 374.827 141.282 374.827 140.502C374.827 139.542 375.253 138.81 376.105 138.306C376.969 137.79 378.331 137.43 380.191 137.226C380.191 136.854 380.137 136.5 380.029 136.164C379.933 135.828 379.753 135.558 379.489 135.354C379.237 135.138 378.871 135.03 378.391 135.03C377.887 135.03 377.413 135.126 376.969 135.318C376.525 135.51 376.129 135.726 375.781 135.966L375.205 134.94C375.613 134.676 376.111 134.424 376.699 134.184C377.299 133.932 377.947 133.806 378.643 133.806C379.711 133.806 380.485 134.136 380.965 134.796C381.445 135.444 381.685 136.314 381.685 137.406V142.77H380.461L380.335 141.726H380.281C379.873 142.062 379.423 142.356 378.931 142.608C378.451 142.86 377.935 142.986 377.383 142.986ZM377.815 141.798C378.235 141.798 378.631 141.696 379.003 141.492C379.375 141.288 379.771 141 380.191 140.628V138.198C378.739 138.378 377.719 138.648 377.131 139.008C376.555 139.368 376.267 139.83 376.267 140.394C376.267 140.886 376.417 141.246 376.717 141.474C377.017 141.69 377.383 141.798 377.815 141.798ZM384.437 142.77V134.022H385.661L385.787 135.606H385.841C386.141 135.054 386.507 134.616 386.939 134.292C387.371 133.968 387.833 133.806 388.325 133.806C388.673 133.806 388.985 133.866 389.261 133.986L388.973 135.282C388.829 135.234 388.697 135.198 388.577 135.174C388.457 135.15 388.307 135.138 388.127 135.138C387.755 135.138 387.365 135.288 386.957 135.588C386.561 135.888 386.213 136.41 385.913 137.154V142.77H384.437ZM391.278 146.532C391.086 146.532 390.9 146.514 390.72 146.478C390.552 146.442 390.396 146.4 390.252 146.352L390.54 145.182C390.636 145.206 390.744 145.23 390.864 145.254C390.984 145.29 391.098 145.308 391.206 145.308C391.698 145.308 392.106 145.128 392.43 144.768C392.754 144.42 393.006 143.976 393.186 143.436L393.384 142.788L389.874 134.022H391.404L393.186 138.864C393.318 139.236 393.456 139.638 393.6 140.07C393.756 140.502 393.9 140.922 394.032 141.33H394.104C394.236 140.934 394.362 140.52 394.482 140.088C394.602 139.656 394.722 139.248 394.842 138.864L396.408 134.022H397.848L394.554 143.49C394.35 144.066 394.104 144.582 393.816 145.038C393.54 145.494 393.192 145.854 392.772 146.118C392.364 146.394 391.866 146.532 391.278 146.532ZM406.596 142.986C405.828 142.986 405.132 142.806 404.508 142.446C403.884 142.086 403.392 141.564 403.032 140.88C402.672 140.196 402.492 139.374 402.492 138.414C402.492 137.43 402.684 136.596 403.068 135.912C403.464 135.228 403.98 134.706 404.616 134.346C405.264 133.986 405.96 133.806 406.704 133.806C407.28 133.806 407.772 133.908 408.18 134.112C408.6 134.316 408.96 134.556 409.26 134.832L408.504 135.804C408.252 135.576 407.982 135.39 407.694 135.246C407.418 135.102 407.106 135.03 406.758 135.03C406.23 135.03 405.756 135.174 405.336 135.462C404.928 135.738 404.604 136.134 404.364 136.65C404.136 137.154 404.022 137.742 404.022 138.414C404.022 139.41 404.268 140.22 404.76 140.844C405.264 141.456 405.918 141.762 406.722 141.762C407.13 141.762 407.508 141.678 407.856 141.51C408.204 141.33 408.51 141.12 408.774 140.88L409.422 141.87C409.026 142.218 408.588 142.494 408.108 142.698C407.628 142.89 407.124 142.986 406.596 142.986ZM414.364 142.986C413.656 142.986 412.99 142.806 412.366 142.446C411.754 142.086 411.256 141.564 410.872 140.88C410.5 140.196 410.314 139.374 410.314 138.414C410.314 137.43 410.5 136.596 410.872 135.912C411.256 135.228 411.754 134.706 412.366 134.346C412.99 133.986 413.656 133.806 414.364 133.806C415.084 133.806 415.75 133.986 416.362 134.346C416.974 134.706 417.466 135.228 417.838 135.912C418.222 136.596 418.414 137.43 418.414 138.414C418.414 139.374 418.222 140.196 417.838 140.88C417.466 141.564 416.974 142.086 416.362 142.446C415.75 142.806 415.084 142.986 414.364 142.986ZM414.364 141.762C415.12 141.762 415.726 141.456 416.182 140.844C416.65 140.22 416.884 139.41 416.884 138.414C416.884 137.406 416.65 136.59 416.182 135.966C415.726 135.342 415.12 135.03 414.364 135.03C413.62 135.03 413.014 135.342 412.546 135.966C412.078 136.59 411.844 137.406 411.844 138.414C411.844 139.41 412.078 140.22 412.546 140.844C413.014 141.456 413.62 141.762 414.364 141.762ZM420.718 142.77V134.022H421.942L422.068 135.282H422.122C422.506 134.862 422.926 134.514 423.382 134.238C423.838 133.95 424.324 133.806 424.84 133.806C425.512 133.806 426.034 133.956 426.406 134.256C426.79 134.544 427.072 134.952 427.252 135.48C427.708 134.988 428.17 134.586 428.638 134.274C429.106 133.962 429.604 133.806 430.132 133.806C431.032 133.806 431.698 134.1 432.13 134.688C432.574 135.264 432.796 136.11 432.796 137.226V142.77H431.32V137.424C431.32 136.608 431.188 136.014 430.924 135.642C430.66 135.27 430.252 135.084 429.7 135.084C429.052 135.084 428.32 135.534 427.504 136.434V142.77H426.028V137.424C426.028 136.608 425.896 136.014 425.632 135.642C425.368 135.27 424.954 135.084 424.39 135.084C423.742 135.084 423.01 135.534 422.194 136.434V142.77H420.718ZM435.642 146.46V134.022H436.866L436.992 135.03H437.046C437.442 134.694 437.874 134.406 438.342 134.166C438.822 133.926 439.32 133.806 439.836 133.806C440.964 133.806 441.822 134.214 442.41 135.03C442.998 135.834 443.292 136.914 443.292 138.27C443.292 139.254 443.112 140.1 442.752 140.808C442.404 141.516 441.942 142.056 441.366 142.428C440.802 142.8 440.184 142.986 439.512 142.986C439.104 142.986 438.696 142.896 438.288 142.716C437.892 142.536 437.49 142.29 437.082 141.978L437.118 143.508V146.46H435.642ZM439.26 141.744C439.98 141.744 440.574 141.438 441.042 140.826C441.522 140.202 441.762 139.35 441.762 138.27C441.762 137.31 441.582 136.536 441.222 135.948C440.874 135.348 440.286 135.048 439.458 135.048C439.086 135.048 438.708 135.15 438.324 135.354C437.952 135.558 437.55 135.852 437.118 136.236V140.826C437.514 141.162 437.898 141.402 438.27 141.546C438.642 141.678 438.972 141.744 439.26 141.744ZM449.028 142.986C448.32 142.986 447.654 142.806 447.03 142.446C446.418 142.086 445.92 141.564 445.536 140.88C445.164 140.196 444.978 139.374 444.978 138.414C444.978 137.43 445.164 136.596 445.536 135.912C445.92 135.228 446.418 134.706 447.03 134.346C447.654 133.986 448.32 133.806 449.028 133.806C449.748 133.806 450.414 133.986 451.026 134.346C451.638 134.706 452.13 135.228 452.502 135.912C452.886 136.596 453.078 137.43 453.078 138.414C453.078 139.374 452.886 140.196 452.502 140.88C452.13 141.564 451.638 142.086 451.026 142.446C450.414 142.806 449.748 142.986 449.028 142.986ZM449.028 141.762C449.784 141.762 450.39 141.456 450.846 140.844C451.314 140.22 451.548 139.41 451.548 138.414C451.548 137.406 451.314 136.59 450.846 135.966C450.39 135.342 449.784 135.03 449.028 135.03C448.284 135.03 447.678 135.342 447.21 135.966C446.742 136.59 446.508 137.406 446.508 138.414C446.508 139.41 446.742 140.22 447.21 140.844C447.678 141.456 448.284 141.762 449.028 141.762ZM455.382 142.77V134.022H456.606L456.732 135.282H456.786C457.206 134.862 457.65 134.514 458.118 134.238C458.586 133.95 459.12 133.806 459.72 133.806C460.644 133.806 461.316 134.1 461.736 134.688C462.168 135.264 462.384 136.11 462.384 137.226V142.77H460.908V137.424C460.908 136.608 460.776 136.014 460.512 135.642C460.248 135.27 459.828 135.084 459.252 135.084C458.808 135.084 458.406 135.198 458.046 135.426C457.698 135.654 457.302 135.99 456.858 136.434V142.77H455.382ZM468.772 142.986C467.992 142.986 467.284 142.806 466.648 142.446C466.012 142.074 465.508 141.546 465.136 140.862C464.764 140.178 464.578 139.362 464.578 138.414C464.578 137.454 464.764 136.632 465.136 135.948C465.52 135.264 466.012 134.736 466.612 134.364C467.212 133.992 467.842 133.806 468.502 133.806C469.618 133.806 470.476 134.178 471.076 134.922C471.688 135.666 471.994 136.662 471.994 137.91C471.994 138.066 471.988 138.222 471.976 138.378C471.976 138.522 471.964 138.648 471.94 138.756H466.036C466.096 139.68 466.384 140.418 466.9 140.97C467.428 141.522 468.112 141.798 468.952 141.798C469.372 141.798 469.756 141.738 470.104 141.618C470.464 141.486 470.806 141.318 471.13 141.114L471.652 142.086C471.28 142.326 470.854 142.536 470.374 142.716C469.906 142.896 469.372 142.986 468.772 142.986ZM466.018 137.694H470.698C470.698 136.806 470.506 136.134 470.122 135.678C469.75 135.21 469.222 134.976 468.538 134.976C467.926 134.976 467.374 135.216 466.882 135.696C466.402 136.164 466.114 136.83 466.018 137.694ZM474.156 142.77V134.022H475.38L475.506 135.282H475.56C475.98 134.862 476.424 134.514 476.892 134.238C477.36 133.95 477.894 133.806 478.494 133.806C479.418 133.806 480.09 134.1 480.51 134.688C480.942 135.264 481.158 136.11 481.158 137.226V142.77H479.682V137.424C479.682 136.608 479.55 136.014 479.286 135.642C479.022 135.27 478.602 135.084 478.026 135.084C477.582 135.084 477.18 135.198 476.82 135.426C476.472 135.654 476.076 135.99 475.632 136.434V142.77H474.156ZM486.753 142.986C485.817 142.986 485.163 142.716 484.791 142.176C484.431 141.636 484.251 140.934 484.251 140.07V135.228H482.955V134.112L484.323 134.022L484.503 131.574H485.745V134.022H488.103V135.228H485.745V140.088C485.745 140.628 485.841 141.048 486.033 141.348C486.237 141.636 486.591 141.78 487.095 141.78C487.251 141.78 487.419 141.756 487.599 141.708C487.779 141.648 487.941 141.594 488.085 141.546L488.373 142.662C488.133 142.746 487.869 142.818 487.581 142.878C487.305 142.95 487.029 142.986 486.753 142.986ZM492.192 142.986C491.568 142.986 490.974 142.872 490.41 142.644C489.846 142.404 489.354 142.116 488.934 141.78L489.672 140.79C490.056 141.09 490.452 141.342 490.86 141.546C491.268 141.738 491.73 141.834 492.246 141.834C492.822 141.834 493.254 141.702 493.542 141.438C493.83 141.162 493.974 140.838 493.974 140.466C493.974 140.166 493.872 139.914 493.668 139.71C493.476 139.506 493.224 139.338 492.912 139.206C492.612 139.062 492.3 138.93 491.976 138.81C491.568 138.654 491.166 138.48 490.77 138.288C490.374 138.084 490.05 137.826 489.798 137.514C489.546 137.19 489.42 136.782 489.42 136.29C489.42 135.582 489.684 134.994 490.212 134.526C490.752 134.046 491.496 133.806 492.444 133.806C492.984 133.806 493.488 133.902 493.956 134.094C494.424 134.286 494.826 134.52 495.162 134.796L494.442 135.732C494.142 135.504 493.83 135.318 493.506 135.174C493.182 135.03 492.828 134.958 492.444 134.958C491.892 134.958 491.484 135.084 491.22 135.336C490.968 135.588 490.842 135.882 490.842 136.218C490.842 136.494 490.932 136.722 491.112 136.902C491.292 137.07 491.526 137.22 491.814 137.352C492.102 137.472 492.408 137.598 492.732 137.73C493.152 137.886 493.566 138.066 493.974 138.27C494.382 138.462 494.718 138.726 494.982 139.062C495.258 139.386 495.396 139.824 495.396 140.376C495.396 140.844 495.27 141.276 495.018 141.672C494.778 142.068 494.418 142.386 493.938 142.626C493.47 142.866 492.888 142.986 492.192 142.986ZM498.221 142.986C497.921 142.986 497.663 142.884 497.447 142.68C497.243 142.464 497.141 142.194 497.141 141.87C497.141 141.522 497.243 141.246 497.447 141.042C497.663 140.826 497.921 140.718 498.221 140.718C498.509 140.718 498.755 140.826 498.959 141.042C499.175 141.246 499.283 141.522 499.283 141.87C499.283 142.194 499.175 142.464 498.959 142.68C498.755 142.884 498.509 142.986 498.221 142.986Z" fill="#ECECEC"/>
<rect x="34" y="166.77" width="100" height="34" rx="3" fill="#687AF0"/>
<path d="M51.5839 188.77V179.614H53.2079V187.398H57.0159V188.77H51.5839ZM61.2335 188.938C60.5988 188.938 60.0248 188.798 59.5115 188.518C58.9982 188.228 58.5922 187.818 58.2935 187.286C57.9948 186.744 57.8455 186.096 57.8455 185.34C57.8455 184.593 57.9948 183.949 58.2935 183.408C58.6015 182.866 58.9982 182.451 59.4835 182.162C59.9688 181.872 60.4775 181.728 61.0095 181.728C61.6348 181.728 62.1575 181.868 62.5775 182.148C62.9975 182.418 63.3148 182.801 63.5295 183.296C63.7442 183.781 63.8515 184.346 63.8515 184.99C63.8515 185.326 63.8282 185.587 63.7815 185.774H59.4135C59.4882 186.38 59.7075 186.852 60.0715 187.188C60.4355 187.524 60.8928 187.692 61.4435 187.692C61.7422 187.692 62.0175 187.65 62.2695 187.566C62.5308 187.472 62.7875 187.346 63.0395 187.188L63.5855 188.196C63.2588 188.41 62.8948 188.588 62.4935 188.728C62.0922 188.868 61.6722 188.938 61.2335 188.938ZM59.3995 184.682H62.4515C62.4515 184.15 62.3348 183.734 62.1015 183.436C61.8682 183.128 61.5182 182.974 61.0515 182.974C60.6502 182.974 60.2908 183.123 59.9735 183.422C59.6655 183.711 59.4742 184.131 59.3995 184.682ZM66.8911 188.938C66.2938 188.938 65.8038 188.751 65.4211 188.378C65.0478 188.004 64.8611 187.519 64.8611 186.922C64.8611 186.184 65.1831 185.615 65.8271 185.214C66.4711 184.803 67.4978 184.523 68.9071 184.374C68.8978 184.01 68.7998 183.697 68.6131 183.436C68.4358 183.165 68.1138 183.03 67.6471 183.03C67.3111 183.03 66.9798 183.095 66.6531 183.226C66.3358 183.356 66.0231 183.515 65.7151 183.702L65.1271 182.624C65.5098 182.381 65.9391 182.171 66.4151 181.994C66.9005 181.816 67.4138 181.728 67.9551 181.728C68.8138 181.728 69.4531 181.984 69.8731 182.498C70.3025 183.002 70.5171 183.734 70.5171 184.696V188.77H69.1871L69.0751 188.014H69.0191C68.7111 188.275 68.3798 188.494 68.0251 188.672C67.6798 188.849 67.3018 188.938 66.8911 188.938ZM67.4091 187.678C67.6891 187.678 67.9411 187.612 68.1651 187.482C68.3985 187.342 68.6458 187.155 68.9071 186.922V185.382C67.9738 185.503 67.3251 185.685 66.9611 185.928C66.5971 186.161 66.4151 186.45 66.4151 186.796C66.4151 187.104 66.5085 187.328 66.6951 187.468C66.8818 187.608 67.1198 187.678 67.4091 187.678ZM72.4439 188.77V181.896H73.7739L73.8859 183.114H73.9419C74.1845 182.666 74.4785 182.325 74.8239 182.092C75.1692 181.849 75.5239 181.728 75.8879 181.728C76.2145 181.728 76.4759 181.774 76.6719 181.868L76.3919 183.268C76.2705 183.23 76.1585 183.202 76.0559 183.184C75.9532 183.165 75.8272 183.156 75.6779 183.156C75.4072 183.156 75.1225 183.263 74.8239 183.478C74.5252 183.683 74.2685 184.047 74.0539 184.57V188.77H72.4439ZM77.6665 188.77V181.896H78.9965L79.1085 182.82H79.1645C79.4725 182.521 79.8085 182.264 80.1725 182.05C80.5365 181.835 80.9519 181.728 81.4185 181.728C82.1559 181.728 82.6925 181.966 83.0285 182.442C83.3645 182.918 83.5325 183.59 83.5325 184.458V188.77H81.9225V184.668C81.9225 184.098 81.8385 183.697 81.6705 183.464C81.5025 183.23 81.2272 183.114 80.8445 183.114C80.5459 183.114 80.2799 183.188 80.0465 183.338C79.8225 183.478 79.5659 183.688 79.2765 183.968V188.77H77.6665ZM88.4433 188.77V179.614H90.2773L91.9013 184.094C92.0039 184.383 92.1019 184.682 92.1953 184.99C92.2979 185.288 92.3959 185.587 92.4893 185.886H92.5453C92.6479 185.587 92.7459 185.288 92.8393 184.99C92.9326 184.682 93.0259 184.383 93.1193 184.094L94.7013 179.614H96.5493V188.77H95.0513V184.584C95.0513 184.294 95.0606 183.982 95.0793 183.646C95.1073 183.3 95.1353 182.955 95.1633 182.61C95.2006 182.264 95.2333 181.952 95.2613 181.672H95.2053L94.4633 183.8L92.9653 187.916H91.9993L90.4873 183.8L89.7593 181.672H89.7033C89.7313 181.952 89.7593 182.264 89.7873 182.61C89.8246 182.955 89.8526 183.3 89.8713 183.646C89.8993 183.982 89.9133 184.294 89.9133 184.584V188.77H88.4433ZM101.549 188.938C100.98 188.938 100.448 188.798 99.9529 188.518C99.4582 188.228 99.0569 187.818 98.7489 187.286C98.4409 186.744 98.2869 186.096 98.2869 185.34C98.2869 184.574 98.4409 183.926 98.7489 183.394C99.0569 182.852 99.4582 182.442 99.9529 182.162C100.448 181.872 100.98 181.728 101.549 181.728C102.128 181.728 102.664 181.872 103.159 182.162C103.654 182.442 104.055 182.852 104.363 183.394C104.671 183.926 104.825 184.574 104.825 185.34C104.825 186.096 104.671 186.744 104.363 187.286C104.055 187.818 103.654 188.228 103.159 188.518C102.664 188.798 102.128 188.938 101.549 188.938ZM101.549 187.622C102.053 187.622 102.45 187.412 102.739 186.992C103.028 186.572 103.173 186.021 103.173 185.34C103.173 184.649 103.028 184.094 102.739 183.674C102.45 183.254 102.053 183.044 101.549 183.044C101.045 183.044 100.648 183.254 100.359 183.674C100.079 184.094 99.9389 184.649 99.9389 185.34C99.9389 186.021 100.079 186.572 100.359 186.992C100.648 187.412 101.045 187.622 101.549 187.622ZM106.418 188.77V181.896H107.748L107.86 183.114H107.916C108.159 182.666 108.453 182.325 108.798 182.092C109.144 181.849 109.498 181.728 109.862 181.728C110.189 181.728 110.45 181.774 110.646 181.868L110.366 183.268C110.245 183.23 110.133 183.202 110.03 183.184C109.928 183.165 109.802 183.156 109.652 183.156C109.382 183.156 109.097 183.263 108.798 183.478C108.5 183.683 108.243 184.047 108.028 184.57V188.77H106.418ZM114.444 188.938C113.81 188.938 113.236 188.798 112.722 188.518C112.209 188.228 111.803 187.818 111.504 187.286C111.206 186.744 111.056 186.096 111.056 185.34C111.056 184.593 111.206 183.949 111.504 183.408C111.812 182.866 112.209 182.451 112.694 182.162C113.18 181.872 113.688 181.728 114.22 181.728C114.846 181.728 115.368 181.868 115.788 182.148C116.208 182.418 116.526 182.801 116.74 183.296C116.955 183.781 117.062 184.346 117.062 184.99C117.062 185.326 117.039 185.587 116.992 185.774H112.624C112.699 186.38 112.918 186.852 113.282 187.188C113.646 187.524 114.104 187.692 114.654 187.692C114.953 187.692 115.228 187.65 115.48 187.566C115.742 187.472 115.998 187.346 116.25 187.188L116.796 188.196C116.47 188.41 116.106 188.588 115.704 188.728C115.303 188.868 114.883 188.938 114.444 188.938ZM112.61 184.682H115.662C115.662 184.15 115.546 183.734 115.312 183.436C115.079 183.128 114.729 182.974 114.262 182.974C113.861 182.974 113.502 183.123 113.184 183.422C112.876 183.711 112.685 184.131 112.61 184.682Z" fill="#24232D"/>
<path d="M866.006 49.87L876.826 45.9738C877.113 45.8705 877.425 45.8574 877.719 45.9364L962.454 68.6408C962.708 68.7089 962.859 68.9699 962.791 69.224L945.288 134.544C945.161 135.02 944.807 135.402 944.342 135.566L933.229 139.488C932.945 139.589 932.636 139.601 932.345 139.523L848.86 117.153C848.063 116.939 847.59 116.12 847.804 115.323L865.069 50.8893C865.195 50.4165 865.545 50.0358 866.006 49.87Z" fill="#687AF0" stroke="#687AF0" stroke-width="1.27099"/>
<g clip-path="url(#clip1_934_45034)">
<path d="M934.508 107.918L924.757 105.306L924.011 108.092L930.697 109.883C928.602 113.801 924.604 116.462 920.191 116.773L908.464 96.461C911.442 92.0334 917.112 89.8199 922.544 91.2756C926.723 92.3954 929.925 95.4927 931.434 99.3311L934.009 98.0801C932.231 93.5725 928.445 89.8706 923.291 88.4896C916.047 86.5487 908.537 90.0605 905.176 96.4756L918.636 119.79C925.771 119.91 932.567 115.162 934.508 107.918ZM903.825 99.8462C902.78 103.747 903.304 107.918 905.446 111.627C907.587 115.337 911.077 117.914 914.838 118.922L903.825 99.8462Z" fill="#687AF0"/>
<path d="M924.411 84.3105C913.685 81.4365 902.558 87.8609 899.684 98.5871C896.81 109.313 903.234 120.441 913.96 123.315C924.686 126.189 935.814 119.764 938.688 109.038C941.562 98.312 935.137 87.1846 924.411 84.3105ZM905.409 111.767C903.267 108.058 902.78 103.747 903.788 99.9854L914.941 119.098C911.078 117.914 907.55 115.476 905.409 111.767ZM918.535 119.614L905.176 96.4756C908.538 90.0604 916.048 86.5486 923.292 88.4896C928.446 89.8706 932.231 93.5724 934.01 98.0801L931.435 99.3311C929.925 95.4926 926.724 92.3953 922.545 91.2756C917.112 89.8199 911.582 92.0706 908.465 96.4609L920.192 116.773C924.605 116.462 928.603 113.801 930.698 109.883L924.011 108.092L924.758 105.306L934.509 107.918C932.568 115.162 925.771 119.91 918.535 119.614Z" fill="#24232D"/>
</g>
<path d="M759.221 21.3038L770.039 17.4278C770.325 17.3252 770.636 17.3124 770.93 17.3911L855.696 40.1039C855.95 40.172 856.101 40.4332 856.033 40.6873L838.584 105.807C838.456 106.284 838.101 106.667 837.635 106.83L826.525 110.732C826.241 110.832 825.934 110.843 825.643 110.765L742.127 88.3876C741.33 88.174 740.857 87.3545 741.07 86.5572L758.282 22.3239C758.409 21.8503 758.76 21.4691 759.221 21.3038Z" fill="#24232D" stroke="#687AF0" stroke-width="1.27099"/>
<g clip-path="url(#clip2_934_45034)">
<path d="M810.583 57.7319C803.344 55.7922 797.85 58.1994 794.1 64.9536C797.785 62.0614 801.316 61.5527 804.693 63.4274C806.619 64.4971 807.694 66.3908 808.883 68.487C810.821 71.9018 813.064 75.8539 819.792 77.6568C827.031 79.5965 832.525 77.1892 836.275 70.4351C832.59 73.3272 829.059 73.8359 825.682 71.9612C823.756 70.8916 822.681 68.9979 821.492 66.9016C819.554 63.4869 817.311 59.5347 810.583 57.7319ZM792.645 70.3829C785.406 68.4432 779.912 70.8504 776.163 77.6045C779.847 74.7124 783.378 74.2037 786.755 76.0784C788.682 77.1481 789.756 79.0417 790.946 81.138C792.884 84.5527 795.126 88.5049 801.854 90.3077C809.093 92.2474 814.588 89.8402 818.337 83.0861C814.653 85.9782 811.122 86.4869 807.745 84.6122C805.818 83.5425 804.743 81.6488 803.554 79.5526C801.616 76.1379 799.374 72.1857 792.645 70.3829Z" fill="#687AF0"/>
</g>
<path d="M973.862 78.8172L984.683 74.9211C984.97 74.8178 985.281 74.8047 985.576 74.8836L1070.31 97.5881C1070.56 97.6561 1070.72 97.9172 1070.65 98.1712L1053.14 163.491C1053.02 163.967 1052.66 164.35 1052.2 164.514L1041.09 168.436C1040.8 168.536 1040.49 168.548 1040.2 168.47L956.717 146.1C955.92 145.887 955.446 145.067 955.66 144.27L972.925 79.8366C973.052 79.3638 973.402 78.983 973.862 78.8172Z" fill="#24232D" stroke="#687AF0" stroke-width="1.27099"/>
<path d="M996.522 -5.71597L1007.34 -9.61211C1007.63 -9.71542 1007.94 -9.72849 1008.24 -9.64957L1092.97 13.0549C1093.22 13.1229 1093.38 13.384 1093.31 13.638L1075.8 78.9579C1075.68 79.4339 1075.32 79.8164 1074.86 79.9804L1063.75 83.9023C1063.46 84.0028 1063.15 84.0147 1062.86 83.9366L979.377 61.5672C978.58 61.3535 978.107 60.534 978.32 59.7368L995.585 -4.69664C995.712 -5.16939 996.062 -5.55017 996.522 -5.71597Z" fill="#24232D" stroke="#687AF0" stroke-width="1.27099"/>
<path d="M843.33 134.494L854.15 130.598C854.437 130.495 854.749 130.481 855.044 130.56L939.778 153.265C940.032 153.333 940.183 153.594 940.115 153.848L922.612 219.168C922.485 219.644 922.131 220.026 921.666 220.19L910.553 224.112C910.269 224.213 909.961 224.225 909.669 224.147L826.185 201.777C825.387 201.563 824.914 200.744 825.128 199.947L842.393 135.513C842.52 135.041 842.87 134.66 843.33 134.494Z" fill="#24232D" stroke="#687AF0" stroke-width="1.27099"/>
<g clip-path="url(#clip3_934_45034)">
<path d="M899.558 171.459L885.11 175.331C884.426 175.514 883.892 176.048 883.709 176.731L879.837 191.179C879.654 191.863 879.85 192.593 880.35 193.093L890.927 203.67C891.427 204.17 892.157 204.366 892.841 204.183L907.289 200.311C907.972 200.128 908.506 199.594 908.69 198.91L912.561 184.462C912.744 183.779 912.549 183.049 912.048 182.549L901.471 171.972C900.971 171.471 900.241 171.276 899.558 171.459Z" fill="#24232D"/>
<path fill-rule="evenodd" clip-rule="evenodd" d="M891.933 187.922L889.445 197.205L885.508 196.15L891.111 175.236L895.049 176.291L892.967 184.064L900.605 186.111L902.688 178.338L906.626 179.393L901.022 200.307L897.084 199.252L899.572 189.969L891.933 187.922Z" fill="#687AF0"/>
<path d="M902.458 168.289L915.731 181.562C916.231 182.063 916.427 182.792 916.243 183.476L911.385 201.607C911.202 202.291 910.668 202.825 909.984 203.008L891.853 207.866C891.17 208.049 890.44 207.854 889.94 207.353L876.667 194.08C876.166 193.58 875.971 192.85 876.154 192.167L881.012 174.036C881.195 173.352 881.729 172.818 882.413 172.635L900.544 167.777C901.228 167.594 901.957 167.789 902.458 168.289ZM899.557 171.46L885.109 175.331C884.426 175.514 883.892 176.048 883.708 176.732L879.837 191.18C879.654 191.864 879.849 192.593 880.35 193.094L890.926 203.67C891.427 204.171 892.156 204.366 892.84 204.183L907.288 200.312C907.972 200.128 908.506 199.594 908.689 198.911L912.56 184.463C912.744 183.779 912.548 183.05 912.048 182.549L901.471 171.972C900.97 171.472 900.241 171.276 899.557 171.46Z" fill="#687AF0"/>
</g>
<path d="M736.586 105.864L747.403 101.988C747.689 101.886 748 101.873 748.294 101.952L833.06 124.664C833.314 124.733 833.465 124.994 833.397 125.248L815.948 190.368C815.82 190.844 815.465 191.227 814.999 191.391L803.889 195.292C803.606 195.392 803.298 195.404 803.007 195.326L719.492 172.948C718.694 172.734 718.221 171.915 718.435 171.118L735.646 106.884C735.773 106.411 736.124 106.03 736.586 105.864Z" fill="#687AF0" stroke="#687AF0" stroke-width="1.27099"/>
<path d="M766.166 143.422L778.777 146.801L778.507 147.809L767.052 144.74L765.019 152.329L775.79 155.215L775.52 156.223L764.748 153.337L762.516 161.668L774.102 164.773L773.832 165.781L761.09 162.367L766.166 143.422ZM779.907 147.104L781.247 147.463L784.952 157.385L793.253 150.68L804.344 142.309L785.479 158.465L789.858 170.075L788.466 169.702L784.483 159.136L775.724 166.288L774.358 165.922L784.008 158.071L779.907 147.104ZM795.164 152.272L795.434 151.264L809.805 155.115L809.535 156.123L802.914 154.349L798.108 172.286L796.952 171.976L801.758 154.039L795.164 152.272Z" fill="#24232D" stroke="#24232D" stroke-width="0.485916"/>
<path d="M750.396 139.212L751.841 139.599L763.73 174.932L758.456 161.677L751.221 140.969L746.476 158.467L745.32 158.157L750.396 139.212Z" fill="#24232D" stroke="#24232D" stroke-width="0.485916"/>
<path d="M804.997 172.713C805.236 172.777 805.459 172.639 805.523 172.402C805.587 172.164 805.462 171.933 805.223 171.869C804.987 171.806 804.76 171.942 804.696 172.18C804.633 172.418 804.76 172.65 804.997 172.713ZM806.43 171.907C806.242 172.609 806.622 173.203 807.356 173.4C808.138 173.609 808.737 173.263 808.957 172.441L809.732 169.55L809.102 169.381L808.328 172.27C808.206 172.726 807.913 172.908 807.51 172.801C807.151 172.704 806.967 172.412 807.049 172.073L806.43 171.907ZM809.755 172.758C809.604 173.501 810.083 174.13 810.983 174.371C811.945 174.629 812.678 174.3 812.887 173.519C813.052 172.904 812.8 172.472 812.02 172.054L811.602 171.824C811.107 171.558 810.938 171.333 811.016 171.042C811.115 170.673 811.511 170.522 812.009 170.655C812.481 170.781 812.745 171.104 812.703 171.496L813.316 171.661C813.463 170.963 812.991 170.317 812.168 170.096C811.282 169.859 810.562 170.185 810.367 170.913C810.206 171.513 810.445 171.96 811.132 172.329L811.621 172.597C812.124 172.868 812.31 173.118 812.227 173.43C812.13 173.792 811.688 173.956 811.182 173.821C810.639 173.675 810.328 173.328 810.379 172.926L809.755 172.758Z" fill="#24232D" stroke="#24232D" stroke-width="0.485916"/>
<path d="M951.175 163.349L961.995 159.453C962.282 159.35 962.594 159.337 962.888 159.416L1047.62 182.12C1047.88 182.188 1048.03 182.449 1047.96 182.703L1030.46 248.023C1030.33 248.499 1029.98 248.882 1029.51 249.046L1018.4 252.968C1018.11 253.068 1017.81 253.08 1017.51 253.002L934.029 230.633C933.232 230.419 932.759 229.599 932.973 228.802L950.238 164.369C950.364 163.896 950.714 163.515 951.175 163.349Z" fill="#24232D" stroke="#687AF0" stroke-width="1.27099"/>
<path d="M985.964 204.052C986.457 204.019 986.957 203.998 987.444 203.985C987.453 203.647 987.468 203.321 987.485 202.986C987.797 197.671 989.564 193.807 992.229 193.089C994.792 192.405 998.061 194.703 1000.88 198.888C1001.16 199.303 1001.42 199.725 1001.67 200.142C1001.96 199.983 1002.25 199.823 1002.55 199.676C1007.31 197.294 1011.55 196.895 1013.5 198.849C1015.36 200.73 1015.01 204.714 1012.8 209.232C1012.57 209.678 1012.35 210.123 1012.1 210.56C1012.6 210.858 1013.09 211.166 1013.53 211.48C1017.63 214.258 1020.21 217.596 1019.53 220.144C1018.82 222.778 1014.66 224.497 1009.55 224.847C1009.13 224.869 1008.72 224.894 1008.3 224.904C1008.29 225.447 1008.27 225.977 1008.23 226.513C1007.85 231.441 1006.17 234.976 1003.61 235.652C1000.98 236.359 997.511 233.975 994.648 229.705C994.419 229.366 994.193 229.017 993.982 228.651C993.509 228.916 993.032 229.159 992.548 229.39C988.101 231.526 984.188 231.827 982.326 229.968C980.401 228.041 980.723 223.841 982.997 219.237C983.174 218.883 983.361 218.531 983.554 218.16C983.305 218.011 983.069 217.855 982.82 217.706C978.379 214.785 975.539 211.232 976.258 208.55C976.953 205.996 980.943 204.407 985.964 204.052ZM999.325 199.946C996.915 196.364 994.269 194.511 992.727 194.922C991.076 195.355 989.639 198.525 989.378 203.112C989.359 203.416 989.342 203.71 989.344 204.01C991.332 204.089 993.318 204.291 995.274 204.64C996.79 203.367 998.396 202.18 1000.07 201.115C999.819 200.717 999.581 200.334 999.325 199.946ZM1004.22 220.741C1003.59 221.355 1002.95 221.977 1002.3 222.575C1003.65 222.783 1005.02 222.922 1006.39 222.991C1006.34 221.67 1006.22 220.287 1006.02 218.864C1005.44 219.501 1004.84 220.133 1004.22 220.741ZM1009.51 211.268C1008.36 210.671 1007.13 210.105 1005.83 209.571C1006.1 210.394 1006.34 211.231 1006.56 212.063C1006.78 212.895 1006.98 213.733 1007.17 214.586C1008.04 213.471 1008.82 212.359 1009.51 211.268ZM1005.63 216.472C1005.39 215.16 1005.09 213.854 1004.74 212.556C1004.4 211.259 1004 209.987 1003.57 208.717C1002.33 208.281 1001.05 207.888 999.733 207.535C998.416 207.182 997.105 206.883 995.82 206.641C994.813 207.515 993.84 208.418 992.887 209.358C991.935 210.298 991.023 211.28 990.137 212.279C990.392 213.594 990.689 214.91 991.038 216.22C991.381 217.517 991.773 218.786 992.203 220.065C993.436 220.499 994.733 220.888 996.06 221.243C997.386 221.599 998.685 221.905 999.946 222.161C1000.96 221.28 1001.96 220.372 1002.91 219.42C1003.85 218.468 1004.75 217.483 1005.63 216.472ZM989.217 216.71C988.983 215.854 988.783 214.987 988.592 214.122C987.727 215.198 986.921 216.322 986.158 217.477C987.385 218.126 988.653 218.702 989.948 219.214C989.674 218.389 989.447 217.545 989.217 216.71ZM989.73 209.914C990.322 209.279 990.927 208.637 991.543 208.03C992.15 207.42 992.773 206.824 993.401 206.25C991.989 206.058 990.632 205.931 989.346 205.885C989.405 207.241 989.533 208.573 989.73 209.914ZM1000.98 202.75C999.842 203.474 998.733 204.269 997.673 205.108C999.367 205.479 1001.05 205.93 1002.7 206.455C1002.17 205.138 1001.59 203.89 1000.98 202.75ZM1012.18 200.196C1010.98 198.988 1007.52 199.328 1003.4 201.378C1003.14 201.504 1002.88 201.649 1002.6 201.802C1003.53 203.565 1004.34 205.389 1005.02 207.262C1006.89 207.948 1008.7 208.743 1010.47 209.659C1010.69 209.255 1010.9 208.838 1011.11 208.431C1013 204.548 1013.31 201.323 1012.18 200.196ZM1008.28 223.023C1008.66 223.012 1009.03 222.999 1009.41 222.977C1011.36 222.891 1013.65 222.546 1015.44 221.77C1016.46 221.403 1017.28 220.654 1017.71 219.666C1018.12 218.119 1015.98 215.422 1012.48 213.053C1012.05 212.751 1011.6 212.476 1011.15 212.2C1010.08 213.882 1008.9 215.494 1007.64 217.02C1007.99 218.989 1008.19 221.001 1008.28 223.023ZM996.205 228.659C997.257 230.311 998.601 231.753 1000.17 232.917C1001 233.621 1002.06 233.948 1003.13 233.821C1004.68 233.403 1006.04 230.573 1006.35 226.351C1006.38 225.854 1006.41 225.357 1006.42 224.853C1004.41 224.749 1002.43 224.515 1000.46 224.142C998.918 225.419 997.29 226.611 995.594 227.671C995.798 228.025 996.001 228.347 996.205 228.659ZM994.69 226.048C995.805 225.348 996.936 224.548 998.069 223.667C997.251 223.489 996.412 223.275 995.566 223.048C994.691 222.814 993.85 222.568 993.015 222.302C993.505 223.588 994.068 224.831 994.69 226.048ZM982.964 225.627C982.766 226.676 983.018 227.774 983.65 228.644C984.787 229.783 987.925 229.532 991.722 227.705C992.16 227.493 992.603 227.261 993.058 227.023C992.154 225.245 991.366 223.417 990.705 221.539C988.817 220.858 986.962 220.052 985.184 219.112C985.005 219.435 984.835 219.76 984.678 220.079C983.775 221.795 983.198 223.68 982.964 225.627ZM983.86 216.13C984.08 216.271 984.29 216.41 984.522 216.544C985.613 214.858 986.815 213.254 988.121 211.729C987.774 209.791 987.558 207.828 987.478 205.859C987.002 205.865 986.543 205.886 986.104 205.913C981.799 206.212 978.502 207.482 978.09 209.02C977.644 210.683 980.023 213.608 983.86 216.13ZM996.851 218.251C994.717 217.679 993.441 215.483 994.015 213.339C994.587 211.205 996.784 209.929 998.927 210.503C1001.07 211.077 1002.34 213.271 1001.76 215.415C1001.19 217.559 998.985 218.823 996.851 218.251Z" fill="#687AF0"/>
</g>
<rect x="1.25" y="1.25" width="1003.5" height="239.5" rx="4.75" stroke="#687AF0" stroke-width="1.5"/>
<defs>
<clipPath id="clip0_934_45034">
<rect x="2" y="2" width="1002" height="238" rx="4" fill="white"/>
</clipPath>
<clipPath id="clip1_934_45034">
<rect width="42.266" height="42.266" fill="white" transform="translate(904.243 77.9307) rotate(15)"/>
</clipPath>
<clipPath id="clip2_934_45034">
<rect width="56.2083" height="33.8128" fill="white" transform="translate(783.437 50.458) rotate(15)"/>
</clipPath>
<clipPath id="clip3_934_45034">
<rect width="42.266" height="42.266" fill="white" transform="translate(881.256 161.939) rotate(15)"/>
</clipPath>
</defs>
</svg>
