<svg width="605" height="114" viewBox="0 0 605 114" fill="none" xmlns="http://www.w3.org/2000/svg">
<g clip-path="url(#clip0_934_45034)">
<rect x="1" y="1" width="603" height="112" rx="4" fill="#24232D"/>
<path d="M49.8034 31.9525C49.8034 30.1447 48.5277 28.8611 46.4698 28.8611C44.8026 28.8611 43.6093 29.6495 43.6093 30.9501C43.6093 34.5538 52.5001 31.6331 52.5001 37.9866C52.5001 41.0358 49.9275 42.7633 46.6346 42.7633C43.8749 42.7633 41.5776 41.5028 40.7148 39.1748L43.0539 36.7503C43.0539 38.9036 44.4109 40.2655 46.6346 40.2655C48.3794 40.2655 49.6803 39.4339 49.6803 38.0911C49.6803 34.4443 40.7895 37.3659 40.7895 31.139C40.7895 28.2605 43.3418 26.3633 46.4698 26.3633C49.2809 26.3633 51.2409 27.7573 52.0067 29.6656L49.8034 31.9525Z" fill="white"/>
<path d="M56.6629 27.1348V31.353H59.6679V33.7042H56.6629V38.6516C56.6629 39.9091 57.0952 40.2295 58.1247 40.2295C58.6018 40.2135 59.0768 40.1564 59.5448 40.0587V42.4692C59.1745 42.6178 58.1043 42.7253 57.7544 42.7253C55.3048 42.7253 53.9875 41.6587 53.9875 39.0363V33.7042H52.0488V31.3571H53.9875V29.9088L56.6629 27.1348Z" fill="white"/>
<path d="M114.995 27.1348V31.353H118V33.7042H114.995V38.6516C114.995 39.9091 115.427 40.2295 116.457 40.2295C116.934 40.2135 117.409 40.1564 117.877 40.0587V42.4692C117.507 42.6178 116.436 42.7253 116.086 42.7253C113.637 42.7253 112.32 41.6587 112.32 39.0363V33.7042H110.381V31.3571H112.32V29.9088L114.995 27.1348Z" fill="white"/>
<path d="M82.9898 34.1057L80.6227 35.5339C80.3765 34.2754 79.2656 33.487 77.9483 33.487C76.2035 33.487 74.9637 34.7234 74.9637 36.8556C74.9637 38.9879 76.1783 40.2322 77.9483 40.2322C79.2239 40.2322 80.3145 39.3575 80.6227 38.2487L82.9278 39.6347C82.2076 41.4043 80.3348 42.7692 77.9483 42.7692C74.511 42.7692 72.1855 40.3588 72.1855 36.8626C72.1855 33.3876 74.5934 30.9561 77.9483 30.9561C80.3144 30.951 82.29 32.316 82.9898 34.1057Z" fill="white"/>
<path d="M86.3395 26.7734V35.4309L90.3525 31.3583H93.9333L89.3231 35.9853L94.036 42.4413H90.7645L87.4503 37.8564L86.3395 38.9612V42.4413H83.6641V26.7734H86.3395Z" fill="white"/>
<path d="M97.2389 26.7734V32.5284C98.0618 31.5692 99.2347 30.9505 100.799 30.9505C103.968 30.9505 106.191 33.5096 106.191 36.9003C106.191 40.2478 103.968 42.7637 100.779 42.7637C99.2144 42.7637 98.0415 42.145 97.2185 41.1859V42.4413H94.5635V26.7734H97.2389ZM100.264 40.2498C102.075 40.2498 103.413 38.906 103.413 36.9023C103.413 34.8554 102.075 33.4694 100.264 33.4694C98.5562 33.4694 97.1565 34.8123 97.1565 36.9023C97.1565 38.9472 98.561 40.2478 100.264 40.2478V40.2498Z" fill="white"/>
<path d="M106.91 26.7734H109.688V29.5454H106.91V26.7734ZM109.624 31.3583V42.4413H106.949V31.3563L109.624 31.3583Z" fill="white"/>
<path d="M20.161 25C19.7455 25 19.3341 25.0849 18.9502 25.2498C18.5664 25.4147 18.2177 25.6564 17.9241 25.9611C17.6305 26.2657 17.3978 26.6274 17.2392 27.0253C17.0807 27.4232 16.9994 27.8497 17 28.2802V33.1925C17 33.5968 17.1082 33.9932 17.3127 34.3376C17.5172 34.682 17.81 34.9607 18.1584 35.1429L22.2732 37.2832V30.4586H28.8551L34.1128 25H20.161Z" fill="#687AF0"/>
<path d="M30.9625 42.7432C31.8007 42.7429 32.6044 42.3977 33.197 41.7836C33.7896 41.1694 34.1225 40.3365 34.1225 39.468V34.5547C34.1222 34.15 34.0132 33.7533 33.8078 33.4091C33.6024 33.0648 33.3086 32.7865 32.9593 32.6053L28.8551 30.459V37.2835H22.2733L17.0107 42.7432H30.9625Z" fill="#687AF0"/>
<path d="M71.4475 42.441H70.9551H68.8681L68.9088 41.051C68.0839 42.0774 66.8664 42.7584 65.2359 42.7584C62.0371 42.7584 59.8076 40.2355 59.8076 36.8789C59.8076 33.4792 62.0158 30.9131 65.2146 30.9131C66.7656 30.9131 67.9385 31.5328 68.7634 32.4738V31.3229H71.4465L71.4475 42.441ZM65.7284 40.2365C67.4412 40.2365 68.8652 38.9308 68.8652 36.8799C68.8652 34.7839 67.4412 33.437 65.7284 33.437C63.9331 33.437 62.5916 34.827 62.5916 36.8799C62.5993 38.8926 63.936 40.2395 65.7313 40.2395L65.7284 40.2365Z" fill="white"/>
<path d="M17.32 66.2495L26.248 89.7695H29.32L38.408 66.2495H35.496L27.816 86.3775L20.232 66.2495H17.32ZM41.1508 73.1295V89.7695H43.7748V73.1295H41.1508ZM40.8628 69.4495H44.0948V66.2495H40.8628V69.4495ZM54.6348 72.6175C51.0828 72.6175 48.0748 74.7295 48.0748 77.6415C48.0748 84.2975 58.8588 81.3215 58.8588 85.4175C58.8588 87.2415 57.1628 88.0415 54.8908 88.0415C52.0428 88.0415 50.2188 86.5375 50.1228 83.9775L47.4988 85.0655C47.9788 88.0095 50.5708 90.2495 54.8908 90.2495C59.0828 90.2495 61.7068 88.3615 61.7068 85.2255C61.7068 78.7615 50.7948 81.6095 50.7948 77.4815C50.7948 75.9775 52.2028 74.8255 54.6348 74.8255C57.2908 74.8255 58.8268 76.2335 58.9868 78.4415L61.4828 77.5135C61.1308 74.6015 58.4428 72.6175 54.6348 72.6175ZM79.7315 73.1295H77.1075V82.2175C77.1075 85.8655 75.2515 87.9455 72.1795 87.9455C69.4595 87.9455 68.0835 86.4415 68.0835 83.4335V73.1295H65.4595V83.8175C65.4595 87.8175 67.7635 90.2495 71.6675 90.2495C74.0035 90.2495 75.9235 89.4175 77.1075 87.4015V89.7695H79.7315V73.1295ZM83.725 85.5455C83.725 88.3615 86.029 90.2495 89.293 90.2495C91.693 90.2495 93.965 89.4495 95.341 87.4975L96.077 89.7695H98.349L97.837 86.7295V78.1215C97.837 74.5695 95.309 72.6175 91.149 72.6175C87.405 72.6175 84.397 74.7615 84.141 77.9295L86.541 78.8895C86.541 76.1375 88.589 74.7935 91.149 74.7935C93.293 74.7935 95.245 75.5295 95.245 77.5455C95.245 79.3375 94.509 79.5935 89.133 80.5535C85.901 81.1295 83.725 82.7295 83.725 85.5455ZM86.541 85.4175C86.541 83.5935 87.981 82.8895 89.869 82.5375C93.645 81.7695 94.701 81.6415 95.245 81.0975V83.0495C95.245 85.9295 93.261 88.1375 89.837 88.1375C87.757 88.1375 86.541 86.9535 86.541 85.4175ZM102.78 66.2495V89.7695H105.404V66.2495H102.78ZM118.321 89.7695H133.841V87.3375H121.009V79.0175H132.849V76.5855H121.009V68.6815H133.777V66.2495H118.321V89.7695ZM154.849 66.2495H152.225V75.7855C150.849 73.8655 148.673 72.6175 145.761 72.6175C140.641 72.6175 137.313 76.5215 137.313 81.4495C137.313 86.3455 140.641 90.2495 145.761 90.2495C148.673 90.2495 150.849 89.0015 152.225 87.1135V89.7695H154.849V66.2495ZM140.001 81.4495C140.001 77.8975 142.241 75.0175 146.145 75.0175C149.953 75.0175 152.289 77.8975 152.289 81.4495C152.289 85.0015 149.953 87.8495 146.145 87.8495C142.241 87.8495 140.001 84.9695 140.001 81.4495ZM159.838 73.1295V89.7695H162.462V73.1295H159.838ZM159.55 69.4495H162.782V66.2495H159.55V69.4495ZM168.682 68.9695V73.1295H165.77V75.5295H168.682V85.4175C168.682 88.9055 170.474 90.1855 173.738 90.1855C174.218 90.1855 175.274 90.0895 175.754 89.8975V87.5615C175.306 87.6575 174.57 87.7535 174.154 87.7535C172.33 87.7535 171.306 87.4655 171.306 85.0975V75.5295H176.106V73.1295H171.306V66.9855L168.682 68.9695ZM179.807 73.1295V89.7695H182.431V73.1295H179.807ZM179.519 69.4495H182.751V66.2495H179.519V69.4495ZM187.307 73.1295V89.7695H189.931V80.7455C189.931 77.0655 191.851 75.0175 195.019 75.0175C197.803 75.0175 199.275 76.6495 199.275 79.7535V89.7695H201.899V79.3695C201.899 75.1775 199.563 72.6495 195.499 72.6495C192.939 72.6495 191.115 73.6095 189.931 75.4975V73.1295H187.307ZM219.965 73.1295V75.6255C218.621 73.8015 216.509 72.6175 213.821 72.6175C208.733 72.6175 205.469 76.3935 205.469 81.0975C205.469 85.8015 208.733 89.5455 213.821 89.5455C216.509 89.5455 218.621 88.3615 219.965 86.5375V89.2575C219.965 92.6495 217.661 94.7935 214.045 94.7935C210.909 94.7935 208.893 93.3855 207.997 90.5375L205.693 92.1375C206.973 95.4335 209.757 97.1295 214.045 97.1295C219.261 97.1295 222.589 94.1535 222.589 89.3855V73.1295H219.965ZM208.157 81.0975C208.157 77.7375 210.365 75.0175 214.173 75.0175C217.885 75.0175 220.029 77.7055 220.029 81.0975C220.029 84.4575 217.885 87.1455 214.173 87.1455C210.365 87.1455 208.157 84.4255 208.157 81.0975ZM241.273 65.7375C238.105 65.7375 236.121 67.9455 236.121 71.0815V73.1295H233.177V75.4655H236.121V89.7695H238.745V75.4655H243.801V73.1295H238.745V71.1455C238.745 68.9695 239.897 68.1055 241.753 68.1055C242.329 68.1055 243.033 68.1695 243.545 68.3295V65.9935C242.873 65.8335 241.945 65.7375 241.273 65.7375ZM254.864 72.6175C249.904 72.6175 246.032 76.2015 246.032 81.4495C246.032 86.6655 249.904 90.2495 254.864 90.2495C259.824 90.2495 263.728 86.6655 263.728 81.4495C263.728 76.2015 259.824 72.6175 254.864 72.6175ZM248.72 81.4495C248.72 77.5775 251.28 75.0495 254.864 75.0495C258.48 75.0495 261.04 77.5775 261.04 81.4495C261.04 85.2895 258.48 87.8175 254.864 87.8175C251.344 87.8175 248.72 85.2895 248.72 81.4495ZM267.495 73.1295V89.7695H270.119V81.7055C270.119 77.0975 272.327 75.4975 275.335 75.4975C275.783 75.4975 276.231 75.5615 276.647 75.6575V72.9375C276.263 72.8735 276.007 72.8415 275.623 72.8415C273.799 72.8415 271.399 73.5455 270.119 76.0095V73.1295H267.495ZM287.603 66.2495V89.7695H290.291V79.2415H302.707V89.7695H305.395V66.2495H302.707V76.8095H290.291V66.2495H287.603ZM317.942 72.6175C313.238 72.6175 309.782 76.4255 309.782 81.4495C309.782 86.6655 313.174 90.2495 318.198 90.2495C321.174 90.2495 324.246 89.0335 325.718 86.2175L323.702 84.5215C322.71 86.8255 320.886 87.9135 318.23 87.9135C315.19 87.9135 312.822 86.0255 312.502 82.3135H325.91C325.942 81.9295 325.974 81.5135 325.974 81.1615C325.974 76.0735 322.966 72.6175 317.942 72.6175ZM312.534 80.2015C312.982 76.7775 315.254 74.9535 317.942 74.9535C321.046 74.9535 323.126 76.9375 323.126 80.2015H312.534ZM329.163 85.5455C329.163 88.3615 331.467 90.2495 334.731 90.2495C337.131 90.2495 339.403 89.4495 340.779 87.4975L341.515 89.7695H343.787L343.275 86.7295V78.1215C343.275 74.5695 340.747 72.6175 336.587 72.6175C332.843 72.6175 329.835 74.7615 329.579 77.9295L331.979 78.8895C331.979 76.1375 334.027 74.7935 336.587 74.7935C338.731 74.7935 340.683 75.5295 340.683 77.5455C340.683 79.3375 339.947 79.5935 334.571 80.5535C331.339 81.1295 329.163 82.7295 329.163 85.5455ZM331.979 85.4175C331.979 83.5935 333.419 82.8895 335.307 82.5375C339.083 81.7695 340.139 81.6415 340.683 81.0975V83.0495C340.683 85.9295 338.699 88.1375 335.275 88.1375C333.195 88.1375 331.979 86.9535 331.979 85.4175ZM364.505 66.2495H361.881V75.7855C360.505 73.8655 358.329 72.6175 355.417 72.6175C350.297 72.6175 346.969 76.5215 346.969 81.4495C346.969 86.3455 350.297 90.2495 355.417 90.2495C358.329 90.2495 360.505 89.0015 361.881 87.1135V89.7695H364.505V66.2495ZM349.657 81.4495C349.657 77.8975 351.897 75.0175 355.801 75.0175C359.609 75.0175 361.945 77.8975 361.945 81.4495C361.945 85.0015 359.609 87.8495 355.801 87.8495C351.897 87.8495 349.657 84.9695 349.657 81.4495ZM369.655 66.2495V89.7695H372.279V66.2495H369.655ZM384.379 72.6175C379.675 72.6175 376.219 76.4255 376.219 81.4495C376.219 86.6655 379.611 90.2495 384.635 90.2495C387.611 90.2495 390.683 89.0335 392.155 86.2175L390.139 84.5215C389.147 86.8255 387.323 87.9135 384.667 87.9135C381.627 87.9135 379.259 86.0255 378.939 82.3135H392.347C392.379 81.9295 392.411 81.5135 392.411 81.1615C392.411 76.0735 389.403 72.6175 384.379 72.6175ZM378.971 80.2015C379.419 76.7775 381.691 74.9535 384.379 74.9535C387.483 74.9535 389.563 76.9375 389.563 80.2015H378.971ZM402.416 72.6175C398.864 72.6175 395.856 74.7295 395.856 77.6415C395.856 84.2975 406.64 81.3215 406.64 85.4175C406.64 87.2415 404.944 88.0415 402.672 88.0415C399.824 88.0415 398 86.5375 397.904 83.9775L395.28 85.0655C395.76 88.0095 398.352 90.2495 402.672 90.2495C406.864 90.2495 409.488 88.3615 409.488 85.2255C409.488 78.7615 398.576 81.6095 398.576 77.4815C398.576 75.9775 399.984 74.8255 402.416 74.8255C405.072 74.8255 406.608 76.2335 406.768 78.4415L409.264 77.5135C408.912 74.6015 406.224 72.6175 402.416 72.6175ZM419.385 72.6175C415.833 72.6175 412.825 74.7295 412.825 77.6415C412.825 84.2975 423.609 81.3215 423.609 85.4175C423.609 87.2415 421.913 88.0415 419.641 88.0415C416.793 88.0415 414.969 86.5375 414.873 83.9775L412.249 85.0655C412.729 88.0095 415.321 90.2495 419.641 90.2495C423.833 90.2495 426.457 88.3615 426.457 85.2255C426.457 78.7615 415.545 81.6095 415.545 77.4815C415.545 75.9775 416.953 74.8255 419.385 74.8255C422.041 74.8255 423.577 76.2335 423.737 78.4415L426.233 77.5135C425.881 74.6015 423.193 72.6175 419.385 72.6175Z" fill="white"/>
<path d="M527.597 38.8803L533.825 36.6377C534.112 36.5344 534.424 36.5213 534.718 36.6003L586.843 50.5668C586.999 50.6088 587.092 50.77 587.05 50.9267L576.326 90.9505C576.198 91.4265 575.844 91.809 575.38 91.973L568.972 94.2343C568.688 94.3347 568.38 94.3466 568.088 94.2685L517.286 80.6563C516.489 80.4426 516.016 79.6231 516.229 78.8259L526.66 39.8996C526.786 39.4269 527.137 39.0461 527.597 38.8803Z" fill="#687AF0" stroke="#687AF0" stroke-width="1.27099"/>
<g clip-path="url(#clip1_934_45034)">
<path d="M569.594 74.8086L563.576 73.196L563.115 74.9155L567.242 76.0213C565.949 78.4393 563.482 80.0819 560.758 80.2736L553.52 67.7371C555.358 65.0045 558.857 63.6383 562.21 64.5368C564.79 65.2279 566.765 67.1395 567.697 69.5086L569.286 68.7364C568.189 65.9544 565.852 63.6696 562.671 62.8173C558.2 61.6193 553.565 63.7868 551.491 67.7462L559.798 82.1358C564.202 82.2099 568.396 79.2793 569.594 74.8086ZM550.657 69.8265C550.012 72.2338 550.335 74.8085 551.657 77.0978C552.979 79.387 555.133 80.9778 557.454 81.5998L550.657 69.8265Z" fill="#687AF0"/>
<path d="M563.363 60.2379C556.743 58.464 549.875 62.4291 548.101 69.0492C546.327 75.6693 550.292 82.5371 556.912 84.3109C563.532 86.0848 570.4 82.1197 572.174 75.4996C573.948 68.8795 569.983 62.0117 563.363 60.2379ZM551.635 77.1836C550.313 74.8943 550.012 72.2336 550.634 69.9123L557.517 81.7086C555.133 80.9776 552.956 79.4728 551.635 77.1836ZM559.736 82.0266L551.491 67.746C553.566 63.7867 558.201 61.6192 562.672 62.8171C565.853 63.6695 568.189 65.9542 569.287 68.7363L567.698 69.5084C566.766 67.1394 564.79 65.2277 562.211 64.5366C558.858 63.6382 555.445 65.0274 553.521 67.737L560.759 80.2734C563.482 80.0817 565.95 78.4392 567.243 76.0212L563.116 74.9154L563.577 73.1959L569.595 74.8085C568.397 79.2792 564.202 82.2097 559.736 82.0266Z" fill="#24232D"/>
</g>
<path d="M461.691 21.2508L467.917 19.02C468.204 18.9174 468.514 18.9046 468.808 18.9833L520.952 32.9552C521.109 32.9972 521.202 33.1584 521.16 33.3152L510.469 73.215C510.341 73.6918 509.986 74.0748 509.521 74.2383L503.115 76.4876C502.831 76.5873 502.524 76.599 502.233 76.5211L451.411 62.9035C450.614 62.6899 450.141 61.8704 450.355 61.0731L460.752 22.271C460.879 21.7974 461.23 21.4162 461.691 21.2508Z" fill="#24232D" stroke="#687AF0" stroke-width="1.27099"/>
<g clip-path="url(#clip2_934_45034)">
<path d="M493.109 43.8351C488.641 42.6379 485.25 44.1236 482.936 48.2922C485.21 46.5072 487.389 46.1933 489.474 47.3503C490.663 48.0105 491.326 49.1793 492.06 50.4731C493.256 52.5806 494.64 55.0199 498.793 56.1325C503.261 57.3297 506.652 55.844 508.966 51.6754C506.692 53.4604 504.513 53.7744 502.428 52.6173C501.239 51.9571 500.576 50.7883 499.842 49.4946C498.646 47.387 497.262 44.9478 493.109 43.8351ZM482.038 51.6432C477.57 50.446 474.179 51.9317 471.865 56.1003C474.139 54.3153 476.318 54.0013 478.403 55.1584C479.592 55.8186 480.255 56.9873 480.989 58.2811C482.185 60.3887 483.569 62.8279 487.722 63.9406C492.19 65.1378 495.581 63.6521 497.895 59.4835C495.621 61.2685 493.442 61.5824 491.357 60.4254C490.168 59.7652 489.505 58.5964 488.771 57.3026C487.575 55.1951 486.191 52.7558 482.038 51.6432Z" fill="#687AF0"/>
</g>
<path d="M594.166 56.7475L600.395 54.5049C600.681 54.4016 600.993 54.3885 601.288 54.4674L653.412 68.434C653.569 68.476 653.662 68.6372 653.62 68.7939L642.895 108.818C642.768 109.294 642.414 109.676 641.949 109.84L635.542 112.101C635.257 112.202 634.949 112.214 634.658 112.136L583.856 98.5235C583.058 98.3098 582.585 97.4903 582.799 96.6931L593.229 57.7668C593.356 57.2941 593.706 56.9133 594.166 56.7475Z" fill="#24232D" stroke="#687AF0" stroke-width="1.27099"/>
<path d="M608.151 4.57464L614.379 2.33205C614.666 2.22874 614.977 2.21567 615.272 2.29459L667.396 16.2612C667.553 16.3032 667.646 16.4643 667.604 16.6211L656.88 56.6448C656.752 57.1208 656.398 57.5033 655.934 57.6673L649.526 59.9286C649.242 60.029 648.933 60.041 648.642 59.9629L597.84 46.3506C597.043 46.137 596.57 45.3175 596.783 44.5202L607.213 5.59397C607.34 5.12122 607.69 4.74045 608.151 4.57464Z" fill="#24232D" stroke="#687AF0" stroke-width="1.27099"/>
<path d="M513.603 91.1108L519.831 88.8682C520.118 88.7649 520.43 88.7518 520.724 88.8307L572.848 102.797C573.005 102.839 573.098 103 573.056 103.157L562.332 143.181C562.204 143.657 561.85 144.039 561.386 144.203L554.978 146.465C554.694 146.565 554.386 146.577 554.094 146.499L503.292 132.887C502.495 132.673 502.022 131.854 502.235 131.056L512.666 92.1301C512.792 91.6574 513.142 91.2766 513.603 91.1108Z" fill="#24232D" stroke="#687AF0" stroke-width="1.27099"/>
<g clip-path="url(#clip3_934_45034)">
<path d="M548.024 114.027L539.106 116.417C538.684 116.53 538.355 116.859 538.242 117.281L535.852 126.198C535.739 126.62 535.86 127.071 536.169 127.38L542.697 133.907C543.006 134.216 543.456 134.337 543.878 134.224L552.795 131.835C553.217 131.721 553.547 131.392 553.66 130.97L556.049 122.053C556.162 121.631 556.041 121.181 555.733 120.872L549.205 114.344C548.896 114.035 548.446 113.914 548.024 114.027Z" fill="#24232D"/>
<path d="M549.814 112.07L558.006 120.262C558.315 120.571 558.435 121.021 558.322 121.443L555.324 132.634C555.211 133.056 554.881 133.385 554.459 133.498L543.269 136.497C542.847 136.61 542.397 136.489 542.088 136.18L533.896 127.988C533.587 127.68 533.466 127.229 533.579 126.807L536.578 115.617C536.691 115.195 537.021 114.865 537.443 114.752L548.633 111.754C549.055 111.641 549.505 111.762 549.814 112.07ZM548.024 114.027L539.107 116.416C538.685 116.529 538.355 116.859 538.242 117.281L535.853 126.198C535.739 126.62 535.86 127.07 536.169 127.379L542.697 133.907C543.006 134.216 543.456 134.337 543.878 134.224L552.795 131.834C553.217 131.721 553.547 131.392 553.66 130.97L556.049 122.053C556.162 121.631 556.042 121.18 555.733 120.871L549.205 114.344C548.896 114.035 548.446 113.914 548.024 114.027Z" fill="#687AF0"/>
</g>
<path d="M447.721 73.4413L453.947 71.2104C454.234 71.1078 454.545 71.095 454.838 71.1738L506.983 85.1456C507.139 85.1877 507.232 85.3489 507.19 85.5057L496.499 125.405C496.371 125.882 496.017 126.265 495.551 126.429L489.146 128.678C488.862 128.778 488.554 128.789 488.264 128.712L437.442 115.094C436.644 114.88 436.171 114.061 436.385 113.264L446.782 74.4614C446.909 73.9878 447.26 73.6066 447.721 73.4413Z" fill="#687AF0" stroke="#687AF0" stroke-width="1.27099"/>
<path d="M465.696 96.7241L473.479 98.8097L473.313 99.432L466.243 97.5376L464.988 102.221L471.636 104.003L471.469 104.625L464.821 102.844L463.443 107.986L470.594 109.902L470.427 110.524L462.563 108.417L465.696 96.7241ZM474.177 98.9965L475.004 99.2181L477.29 105.342L482.414 101.204L489.259 96.037L477.616 106.009L480.319 113.174L479.459 112.944L477.001 106.423L471.595 110.837L470.752 110.611L476.708 105.765L474.177 98.9965ZM483.593 102.187L483.76 101.564L492.63 103.941L492.463 104.563L488.377 103.468L485.41 114.539L484.697 114.348L487.663 103.277L483.593 102.187Z" fill="#24232D" stroke="#24232D" stroke-width="0.485916"/>
<path d="M455.963 94.126L456.855 94.3649L464.192 116.172L460.937 107.991L456.472 95.2102L453.543 106.01L452.83 105.819L455.963 94.126Z" fill="#24232D" stroke="#24232D" stroke-width="0.485916"/>
<path d="M489.662 114.802C489.81 114.841 489.948 114.756 489.987 114.609C490.027 114.463 489.949 114.32 489.802 114.281C489.656 114.242 489.516 114.326 489.477 114.473C489.438 114.62 489.517 114.763 489.662 114.802ZM490.547 114.304C490.431 114.738 490.666 115.104 491.119 115.225C491.601 115.355 491.971 115.141 492.106 114.634L492.585 112.849L492.196 112.745L491.718 114.528C491.643 114.81 491.462 114.922 491.214 114.856C490.992 114.796 490.878 114.616 490.929 114.407L490.547 114.304ZM492.599 114.83C492.506 115.288 492.802 115.677 493.357 115.825C493.951 115.984 494.403 115.781 494.532 115.299C494.634 114.92 494.478 114.653 493.997 114.395L493.739 114.253C493.434 114.089 493.329 113.95 493.378 113.77C493.439 113.543 493.683 113.449 493.99 113.531C494.282 113.61 494.444 113.809 494.418 114.051L494.797 114.152C494.888 113.721 494.597 113.323 494.088 113.187C493.542 113.04 493.097 113.242 492.977 113.691C492.877 114.061 493.025 114.337 493.449 114.565L493.751 114.73C494.061 114.897 494.176 115.052 494.125 115.244C494.065 115.468 493.792 115.569 493.48 115.485C493.145 115.396 492.953 115.181 492.984 114.933L492.599 114.83Z" fill="#24232D" stroke="#24232D" stroke-width="0.485916"/>
<path d="M580.163 108.92L586.392 106.678C586.678 106.574 586.99 106.561 587.285 106.64L639.409 120.607C639.566 120.649 639.659 120.81 639.617 120.967L628.892 160.991C628.765 161.467 628.411 161.849 627.946 162.013L621.539 164.274C621.254 164.375 620.946 164.387 620.655 164.309L569.853 150.696C569.055 150.483 568.582 149.663 568.796 148.866L579.226 109.94C579.353 109.467 579.703 109.086 580.163 108.92Z" fill="#24232D" stroke="#687AF0" stroke-width="1.27099"/>
</g>
<rect x="0.5" y="0.5" width="604" height="113" rx="4.5" stroke="#687AF0"/>
<defs>
<clipPath id="clip0_934_45034">
<rect x="1" y="1" width="603" height="112" rx="4" fill="white"/>
</clipPath>
<clipPath id="clip1_934_45034">
<rect width="26.0862" height="26.0862" fill="white" transform="translate(550.915 56.3008) rotate(15)"/>
</clipPath>
<clipPath id="clip2_934_45034">
<rect width="34.6913" height="20.869" fill="white" transform="translate(476.354 39.3457) rotate(15)"/>
</clipPath>
<clipPath id="clip3_934_45034">
<rect width="26.0862" height="26.0862" fill="white" transform="translate(536.729 108.151) rotate(15)"/>
</clipPath>
</defs>
</svg>
